<?xml version="1.0" encoding="UTF-8"?>
<svg version="1.1" xmlns="http://www.w3.org/2000/svg" width="512" height="512">
<path d="M0 0 C1.01790619 0.00215515 2.03581238 0.0043103 3.08456421 0.00653076 C17.69363523 0.05620146 32.02575853 0.30709809 46.375 3.3125 C47.34985352 3.51117676 48.32470703 3.70985352 49.32910156 3.91455078 C97.7109774 14.03517194 141.69928269 35.9516877 177.375 70.3125 C178.3640332 71.26068604 178.3640332 71.26068604 179.37304688 72.22802734 C188.86130305 81.37247479 197.6012044 90.66984009 205.375 101.3125 C206.23306152 102.46355017 207.09113451 103.61459177 207.94921875 104.765625 C213.98736829 112.95680614 219.34595521 121.47054105 224.375 130.3125 C224.73948242 130.94430176 225.10396484 131.57610352 225.47949219 132.22705078 C247.08534998 169.97532572 256.85198095 212.74189997 256.6875 255.9375 C256.68534485 256.95540619 256.6831897 257.97331238 256.68096924 259.02206421 C256.63129854 273.63113523 256.38040191 287.96325853 253.375 302.3125 C253.07698486 303.77478027 253.07698486 303.77478027 252.77294922 305.26660156 C242.65232806 353.6484774 220.7358123 397.63678269 186.375 433.3125 C185.74287598 433.97185547 185.11075195 434.63121094 184.45947266 435.31054688 C175.31502521 444.79880305 166.01765991 453.5387044 155.375 461.3125 C154.22394983 462.17056152 153.07290823 463.02863451 151.921875 463.88671875 C143.73224019 469.92427396 135.22961724 475.30707302 126.375 480.3125 C125.66778809 480.7146875 124.96057617 481.116875 124.23193359 481.53125 C101.09654164 494.5566741 75.92537591 503.30551461 49.9375 508.625 C49.21860596 508.77235596 48.49971191 508.91971191 47.7590332 509.0715332 C33.08339502 511.86090125 18.55831162 512.66142619 3.64770508 512.62817383 C0.70811513 512.6250221 -2.2304558 512.64854926 -5.16992188 512.67382812 C-18.54306192 512.71848737 -31.43916711 511.51301542 -44.625 509.3125 C-46.33055054 509.03031616 -46.33055054 509.03031616 -48.07055664 508.74243164 C-91.33802759 500.97044532 -132.38793216 480.98345309 -165.625 452.3125 C-166.37007813 451.67828125 -167.11515625 451.0440625 -167.8828125 450.390625 C-181.38779833 438.57948485 -194.05918743 425.82889772 -204.625 411.3125 C-205.48149066 410.16255169 -206.33826433 409.01281411 -207.1953125 407.86328125 C-213.23534209 399.67315742 -218.61867614 391.16870382 -223.625 382.3125 C-224.0271875 381.60528809 -224.429375 380.89807617 -224.84375 380.16943359 C-237.8691741 357.03404164 -246.61801461 331.86287591 -251.9375 305.875 C-252.08485596 305.15610596 -252.23221191 304.43721191 -252.3840332 303.6965332 C-255.35789088 288.05024391 -255.99800362 272.57681954 -255.9375 256.6875 C-255.93534485 255.66959381 -255.9331897 254.65168762 -255.93096924 253.60293579 C-255.88129854 238.99386477 -255.63040191 224.66174147 -252.625 210.3125 C-252.42632324 209.33764648 -252.22764648 208.36279297 -252.02294922 207.35839844 C-241.90232806 158.9765226 -219.9858123 114.98821731 -185.625 79.3125 C-184.99287598 78.65314453 -184.36075195 77.99378906 -183.70947266 77.31445312 C-174.56502521 67.82619695 -165.26765991 59.0862956 -154.625 51.3125 C-153.47394983 50.45443848 -152.32290823 49.59636549 -151.171875 48.73828125 C-142.98224019 42.70072604 -134.47961724 37.31792698 -125.625 32.3125 C-124.91778809 31.9103125 -124.21057617 31.508125 -123.48193359 31.09375 C-100.34654164 18.0683259 -75.17537591 9.31948539 -49.1875 4 C-48.46860596 3.85264404 -47.74971191 3.70528809 -47.0090332 3.5534668 C-31.36274391 0.57960912 -15.88931954 -0.06050362 0 0 Z M-19.30859375 109.38671875 C-24.4921769 116.96982408 -26.45768983 125.22469543 -25.625 134.3125 C-24.44542308 139.46740434 -22.72747033 144.46064539 -20.625 149.3125 C-21.16125 149.42464844 -21.6975 149.53679687 -22.25 149.65234375 C-43.73376498 155.05862013 -64.33480299 172.531177 -75.625 191.3125 C-88.66060068 213.4075915 -91.81702197 235.01580586 -91.72265625 260.45703125 C-91.72078557 261.96302747 -91.71936475 263.46902431 -91.71836853 264.97502136 C-91.71459444 268.89248405 -91.70480935 272.80990823 -91.69366455 276.72735596 C-91.68333905 280.74336222 -91.67884732 284.75937485 -91.67382812 288.77539062 C-91.66318119 296.62111109 -91.64616814 304.4668001 -91.625 312.3125 C-93.61856079 312.53502401 -95.61212158 312.75754801 -97.60568237 312.98007202 C-104.1787133 314.06215012 -110.39817488 319.17717073 -114.375 324.3515625 C-119.40509187 332.24251913 -120.82101224 340.02308458 -119.625 349.3125 C-118.8055075 351.84079973 -117.85056096 354.07050265 -116.59765625 356.41015625 C-114.80967532 359.90713101 -114.80967532 359.90713101 -114.625 362.3125 C-116.37573242 364.56738281 -116.37573242 364.56738281 -118.98046875 367.015625 C-119.91310547 367.91410156 -120.84574219 368.81257813 -121.80664062 369.73828125 C-122.80735957 370.68099934 -123.80932376 371.62239723 -124.8125 372.5625 C-135.18454218 381.5243094 -135.18454218 381.5243094 -139.7890625 393.88671875 C-138.66571812 398.29055433 -137.45419759 401.75592363 -133.5234375 404.48828125 C-129.47223298 406.24713753 -125.89630067 406.22139673 -121.625 405.3125 C-116.38020141 402.12678034 -112.87687465 397.37734008 -109.421875 392.4140625 C-103.45057774 384.27807044 -96.90394686 376.05379591 -86.6628418 373.60388184 C-70.55686895 371.14306185 -53.81915154 372.20882424 -37.625 373.3125 C-37.56124176 374.00133774 -37.49748352 374.69017548 -37.43179321 375.39988708 C-37.3455368 376.30231644 -37.2592804 377.20474579 -37.17041016 378.13452148 C-37.08602692 379.02960922 -37.00164368 379.92469696 -36.91470337 380.84690857 C-35.90777593 389.41661096 -31.16418187 395.9803156 -25.625 402.3125 C-25.12484375 402.92996094 -24.6246875 403.54742187 -24.109375 404.18359375 C-16.82180376 412.44652175 -4.53093092 417.74704269 6.32421875 418.5234375 C21.05567939 418.97671321 33.75626786 414.73481007 44.6875 404.625 C52.60022984 396.08584571 58.375 385.1132472 58.375 373.3125 C59.05214554 373.32138245 59.72929108 373.33026489 60.42695618 373.3394165 C67.51672875 373.42836395 74.60634108 373.48843021 81.6965332 373.53222656 C84.33754929 373.55225996 86.97852149 373.57949451 89.61938477 373.61425781 C93.42996091 373.663139 97.23994721 373.68555267 101.05078125 373.703125 C102.8030175 373.73409271 102.8030175 373.73409271 104.59065247 373.76568604 C115.53775359 373.76863818 124.42852399 371.25858995 132.4296875 363.6015625 C138.00669773 357.03905648 140.76890388 349.42651947 140.65625 340.87890625 C139.84547195 333.48055658 136.65587338 325.64671554 131.375 320.3125 C125.1872898 315.36233184 119.4252067 312.17742942 111.375 312.3125 C111.38388245 311.39225037 111.39276489 310.47200073 111.4019165 309.52386475 C111.48278589 300.75932474 111.54332639 291.99491389 111.58224869 283.23008347 C111.60293315 278.72630366 111.63089021 274.2228376 111.67675781 269.71923828 C112.46639469 230.29675046 112.46639469 230.29675046 97.4140625 194.53125 C95.98920063 191.48868782 96.24912018 190.50101601 97.375 187.3125 C99.44617646 184.69869873 101.82108474 182.4258126 104.21875 180.11328125 C104.90304077 179.43702194 105.58733154 178.76076263 106.2923584 178.06401062 C108.47732101 175.90802451 110.67548405 173.7661281 112.875 171.625 C115.0718589 169.47061915 117.26589819 167.31343884 119.4576416 165.15385437 C120.82184901 163.81138056 122.18952019 162.47241601 123.56091309 161.13728333 C124.17825317 160.53292953 124.79559326 159.92857574 125.43164062 159.3059082 C125.97711548 158.77471878 126.52259033 158.24352936 127.08459473 157.69624329 C130.06891802 154.49605695 129.76487774 151.03327087 129.72265625 146.859375 C129.14836399 142.65220028 127.52872024 141.11580688 124.375 138.3125 C121.35842031 136.48667545 119.59957199 136.3125 116.0625 136.3125 C105.80131298 139.09519479 98.12017451 149.33746633 90.875 156.6875 C89.65932351 157.91322609 88.44318139 159.13849055 87.2265625 160.36328125 C84.27064414 163.34105682 81.32110536 166.32501676 78.375 169.3125 C75.30725272 167.26876147 72.24144447 165.22259114 69.18359375 163.1640625 C61.50346773 158.06173032 53.84643388 153.99310874 45.375 150.3125 C44.03640747 149.65645713 42.70063513 148.99434582 41.375 148.3125 C41.66375 147.77625 41.9525 147.24 42.25 146.6875 C46.33235969 138.06918511 46.84711519 128.59793564 44.6796875 119.34375 C41.01168591 109.35692214 34.35587462 101.77604642 24.83984375 97.0546875 C8.2249764 90.21749029 -8.1983007 95.73347034 -19.30859375 109.38671875 Z " fill="#9B1D28" transform="translate(255.625,-0.3125)"/>
<path d="M0 0 C1.05126197 0.84232915 2.09749244 1.69135228 3.125 2.5625 C1.55259979 6.3496201 -0.81444028 8.75346054 -3.69567871 11.637146 C-4.19008626 12.13467353 -4.68449382 12.63220107 -5.19388342 13.14480519 C-6.85043914 14.80933313 -8.51404584 16.46662698 -10.17773438 18.12402344 C-11.36730291 19.3163021 -12.55644556 20.50900581 -13.74519348 21.70210266 C-16.97390057 24.93993136 -20.2089068 28.17139715 -23.44534492 31.40149593 C-26.82800581 34.77909804 -30.20578971 38.16157161 -33.58435059 41.54327393 C-39.25690335 47.21946569 -44.93366149 52.89142605 -50.61279297 58.56103516 C-57.18650821 65.12385551 -63.75297314 71.69386415 -70.3157382 78.2676332 C-75.94520952 83.90616679 -81.57855191 89.54081059 -87.21517611 95.17219377 C-90.58418476 98.53807822 -93.95181287 101.90531401 -97.31596375 105.27605438 C-100.47641262 108.44226104 -103.64167636 111.60357243 -106.81079674 114.76109886 C-107.97597221 115.92361978 -109.13943051 117.08786459 -110.3010807 118.25390816 C-111.88093459 119.83918738 -113.46675397 121.41823967 -115.05432129 122.99578857 C-115.94217567 123.88288891 -116.83003006 124.76998924 -117.74478912 125.68397141 C-119.875 127.5625 -119.875 127.5625 -121.875 127.5625 C-121.94498455 118.17319679 -121.99805437 108.78398548 -122.03043652 99.39447689 C-122.04599034 95.03299075 -122.06703675 90.67168507 -122.10131836 86.31030273 C-122.13428366 82.08922657 -122.15192997 77.86832227 -122.15963173 73.64712715 C-122.16510941 72.04904035 -122.17580243 70.4509613 -122.19219017 68.85294914 C-122.42381824 45.29631064 -116.65943001 24.50761102 -100.26171875 6.7890625 C-92.32470176 -0.61535597 -83.10980707 -6.76525681 -72.875 -10.4375 C-71.81667969 -10.82808594 -70.75835937 -11.21867188 -69.66796875 -11.62109375 C-46.12995164 -19.12107936 -19.78706509 -14.68408514 0 0 Z " fill="#9B1D28" transform="translate(311.875,184.4375)"/>
<path d="M0 0 C0.96742586 2.30904474 1.92391841 4.62172693 2.875 6.9375 C3.14441406 7.57751953 3.41382813 8.21753906 3.69140625 8.87695312 C8.2004041 19.92949664 8.26958019 30.42092505 8.1953125 42.16015625 C8.19236683 43.71968442 8.19032962 45.27921457 8.18920898 46.83874512 C8.17878233 52.58002717 8.15085986 58.32126672 8.125 64.0625 C8.08375 76.911875 8.0425 89.76125 8 103 C-28.96 103 -65.92 103 -104 103 C-102.18248404 99.36496809 -100.81917492 97.56640838 -98.02125549 94.76055908 C-97.18984039 93.92205917 -96.35842529 93.08355927 -95.5018158 92.21965027 C-94.58799637 91.30830826 -93.67417694 90.39696625 -92.73266602 89.45800781 C-91.76147343 88.48246684 -90.79069929 87.50650914 -89.8203125 86.53016663 C-87.18665992 83.88313044 -84.54664437 81.24252883 -81.90502667 78.6034441 C-79.70123632 76.4007233 -77.50042924 74.19503373 -75.29957145 71.98938346 C-70.10985791 66.78857821 -64.91483756 61.59311593 -59.71655273 56.40087891 C-54.34892652 51.03930133 -48.99056166 45.66859324 -43.63660866 40.29336476 C-39.04153142 35.68069853 -34.44069701 31.07383124 -29.83518738 26.47158122 C-27.08356487 23.72177509 -24.33423504 20.96976975 -21.59045601 18.21213531 C-19.01242955 15.62157807 -16.42731458 13.03831437 -13.83647919 10.46056938 C-12.43053765 9.05813877 -11.03202656 7.64827157 -9.63371277 6.23823547 C-8.79947784 5.41101486 -7.96524292 4.58379425 -7.10572815 3.73150635 C-6.38103112 3.00664158 -5.6563341 2.28177681 -4.90967655 1.53494644 C-3 0 -3 0 0 0 Z " fill="#9B1E28" transform="translate(333,209)"/>
<path d="M0 0 C0.67423272 -0.00397441 1.34846543 -0.00794881 2.04312944 -0.01204365 C4.3072457 -0.02168476 6.57073992 -0.00983816 8.83483887 0.00190735 C10.45601129 -0.00052003 12.07718222 -0.00423882 13.698349 -0.00915527 C18.10533668 -0.01857535 22.51210271 -0.00912951 26.9190731 0.00417686 C31.52612729 0.01547695 36.13317032 0.01138496 40.74023438 0.00942993 C48.47769806 0.0085465 56.21507421 0.01963763 63.95251465 0.03804016 C72.90425239 0.05920854 81.85586187 0.06271796 90.80761957 0.0564782 C99.41094313 0.05078783 108.01422142 0.05642634 116.61753845 0.06765175 C120.28255549 0.07230207 123.94754489 0.07316971 127.61256409 0.0710659 C131.92666455 0.06918527 136.24063406 0.07726949 140.55470467 0.0931263 C142.14019797 0.09737675 143.72570453 0.09821461 145.3112011 0.0954361 C147.47120265 0.09222449 149.63081043 0.10126993 151.79077148 0.11352539 C153.60592884 0.1166047 153.60592884 0.1166047 155.45775604 0.11974621 C158.39538574 0.3742218 158.39538574 0.3742218 161.39538574 2.3742218 C161.70788574 5.3742218 161.70788574 5.3742218 161.39538574 8.3742218 C159.39538574 10.3742218 159.39538574 10.3742218 156.41625023 10.62031746 C155.12758364 10.61847387 153.83891705 10.61663029 152.51119995 10.61473083 C151.79486944 10.61643968 151.07853893 10.61814853 150.34050143 10.61990917 C147.92819473 10.62321654 145.51616312 10.61218007 143.10388184 10.60127258 C141.37947089 10.60070874 139.65505947 10.60102451 137.9306488 10.60215759 C133.23872636 10.60273315 128.54690547 10.59094611 123.85500669 10.57700968 C118.95559925 10.56453603 114.05618967 10.56333448 109.1567688 10.56095886 C99.87428784 10.55473417 90.59185379 10.53831001 81.30939353 10.51825988 C70.74365389 10.49593161 60.17791206 10.48491519 49.61215472 10.47486901 C27.87320551 10.45394461 6.13429858 10.41874947 -15.60461426 10.3742218 C-14.66870922 9.2687029 -13.73081568 8.16486727 -12.79211426 7.0617218 C-12.27004395 6.44683899 -11.74797363 5.83195618 -11.21008301 5.19844055 C-10.68027832 4.59644836 -10.15047363 3.99445618 -9.60461426 3.3742218 C-9.18009224 2.81088544 -8.75557022 2.24754908 -8.3181839 1.66714191 C-5.64740343 -0.34801154 -3.30417361 -0.00045802 0 0 Z " fill="#9B1D28" transform="translate(208.6046142578125,336.6257781982422)"/>
<path d="M0 0 C14.85 0 29.7 0 45 0 C43.63543258 8.18740454 40.48222444 12.23754939 34 17 C28.15813353 19.81201708 22.35268303 19.82636527 16 19 C9.54913114 16.63206973 5.24604583 12.95486267 1.83984375 7.02734375 C1 5 1 5 0 0 Z " fill="#9B1D28" transform="translate(243,373)"/>
<path d="M0 0 C3.64184981 2.55704348 4.77792202 4.22272709 6 8.5 C6 12.48112565 5.5290797 13.96510436 3 17 C-0.03489564 19.5290797 -1.51887435 20 -5.5 20 C-9.77727291 18.77792202 -11.44295652 17.64184981 -14 14 C-14.64643474 11.19311232 -14.62988925 8.80896558 -14 6 C-10.37088375 0.31438455 -6.67896303 -1.1131605 0 0 Z " fill="#9A1E28" transform="translate(270,120)"/>
<path d="M0 0 C0.66 0.33 1.32 0.66 2 1 C1.01 1.66 0.02 2.32 -1 3 C-0.67 2.01 -0.34 1.02 0 0 Z " fill="#9A1E29" transform="translate(163,338)"/>
</svg>
