<svg width="107" height="32" viewBox="0 0 107 32" fill="none" xmlns="http://www.w3.org/2000/svg">
<g id="Logo" clip-path="url(#clip0_8148_97352)">
<path id="Vector" d="M1.58203 24.3852C1.58203 24.3852 4.53488 24.2304 5.13727 24.3852L4.66718 25.9756L4.1239 27.2086L2.98105 27.7209L1.85508 27.0875L1.79315 25.6435V24.799L1.58203 24.3852Z" fill="white"/>
<path id="Vector_2" d="M6.77873 4.01096C6.77873 4.01096 8.61124 0.965215 9.76818 0.351562L12.9913 3.18337L13.1067 3.39449L12.721 3.88429L12.7661 4.21645L13.329 6.32764C13.329 6.32764 13.9343 9.54509 12.9828 10.3586L12.949 10.3839C11.9526 11.1524 12.3157 10.9328 12.3157 10.9328L11.5444 12.1601L10.9082 12.3234L9.14608 11.1383L9.03348 9.98703L7.99478 9.7731L7.36423 9.10596L6.84348 8.21645L7.66543 8.15452L7.10245 5.99547L6.57324 4.90892L6.77873 4.01096Z" fill="white"/>
<path id="Vector_3" d="M6.84901 20.0402L5.27829 18.0304C5.14598 18.0022 4.15232 18.5342 3.87083 18.8185C3.67941 19.0304 3.52352 19.2719 3.40918 19.5335L4.07069 19.3843L3.72164 19.9473L4.32966 19.7756L4.04817 20.2767L4.67871 20.1697L4.39722 20.682L4.91235 20.4793L4.63085 21.0423L5.24732 20.834L4.96583 21.397C5.68926 21.3548 6.84901 20.0402 6.84901 20.0402Z" fill="#303849"/>
<path id="Vector_4" d="M5.4442 4.21736C5.97341 3.584 4.83336 2.59878 4.55469 3.44044C4.57439 3.97809 4.9347 4.17232 5.4442 4.21736Z" fill="white"/>
<path id="Vector_5" d="M5.33169 4.43994C4.73493 4.48216 4.65893 4.00362 4.2198 3.87695C4.21135 4.51875 4.94042 4.85655 5.33169 4.43994Z" fill="white"/>
<path id="Vector_6" d="M7.88759 5.21792C7.26549 5.28266 7.35275 4.65493 6.88829 4.55078C6.69406 4.94487 7.18949 5.47126 7.33023 5.88505C7.68773 5.83157 7.71306 5.45155 7.88759 5.21792Z" fill="white"/>
<path id="Vector_7" d="M4.10932 5.44145C3.93198 5.52308 4.13465 5.98473 3.77716 5.88621C3.68708 5.27537 4.14591 5.21907 4.10932 4.66172C3.76027 4.60824 3.71805 4.86439 3.3324 4.77432C2.59208 5.56812 1.92494 7.40345 2.66527 8.66172C2.58363 7.88199 2.49074 7.27959 3.11002 6.99529C3.15712 7.06911 3.22335 7.12877 3.30167 7.16793C3.37999 7.20709 3.46747 7.22428 3.55478 7.21767C3.62234 6.47171 4.17969 6.21274 4.55408 5.77361C4.11776 5.94814 4.32325 5.48649 4.10932 5.44145Z" fill="white"/>
<path id="Vector_8" d="M14.995 7.99425C15.0851 6.96962 14.6938 5.46082 15.9971 5.6635C16.197 5.95562 16.2766 6.31349 16.2195 6.66279C17.5481 6.07447 15.192 4.77961 14.7754 5.88587C14.888 6.5502 14.5305 7.68461 14.995 7.99425Z" fill="white"/>
<path id="Vector_9" d="M10.5535 5.99528C10.5525 5.90113 10.5178 5.81045 10.4557 5.73966C10.3936 5.66888 10.3082 5.62267 10.215 5.6094C10.1218 5.59613 10.0269 5.61668 9.94749 5.66733C9.8681 5.71797 9.80948 5.79537 9.78223 5.8855C10.1369 5.82076 10.2945 5.9615 10.5535 5.99528Z" fill="#303849"/>
<path id="Vector_10" d="M19.1076 5.99674C18.874 5.90385 18.6741 5.54073 18.4405 5.77437C18.3729 6.16845 19.0176 6.41898 19.1076 5.99674Z" fill="white"/>
<path id="Vector_11" d="M7.88722 5.88672C7.74648 6.08658 7.29328 6.61578 7.77463 6.77342C7.73522 6.46378 8.19968 6.09784 7.88722 5.88672Z" fill="white"/>
<path id="Vector_12" d="M8.22216 5.99609C8.01949 6.60975 7.86185 7.26844 7.65918 7.8849C7.89008 7.63335 8.06075 7.33259 8.15828 7.00536C8.25582 6.67813 8.27766 6.33301 8.22216 5.99609Z" fill="white"/>
<path id="Vector_13" d="M10.3453 6.66224V6.20622C10.3169 6.17355 10.2822 6.14707 10.2431 6.12842C10.2041 6.10978 10.1616 6.09937 10.1184 6.09785C10.0751 6.09633 10.032 6.10372 9.99176 6.11958C9.9515 6.13543 9.91493 6.1594 9.88433 6.19C9.85374 6.22059 9.82977 6.25716 9.81391 6.29742C9.79806 6.33768 9.79067 6.38077 9.79219 6.42402C9.79371 6.46726 9.80412 6.50973 9.82276 6.54877C9.8414 6.58782 9.86789 6.62261 9.90056 6.65098L10.3453 6.66224Z" fill="#303849"/>
<path id="Vector_14" d="M12.8785 5.57575C12.8839 5.47746 12.8522 5.38073 12.7899 5.30457C12.7275 5.22841 12.6389 5.17835 12.5415 5.16423C12.4441 5.15011 12.3449 5.17296 12.2635 5.22828C12.1821 5.2836 12.1243 5.36739 12.1016 5.46315C12.4562 5.39841 12.6111 5.53916 12.8785 5.57575Z" fill="#303849"/>
<path id="Vector_15" d="M12.3149 6.24439H12.7653V5.79682C12.706 5.73709 12.6253 5.70339 12.5411 5.70313C12.4569 5.70286 12.3761 5.73606 12.3163 5.79541C12.2566 5.85476 12.2229 5.93541 12.2227 6.01961C12.2224 6.10381 12.2556 6.18466 12.3149 6.24439Z" fill="#303849"/>
<path id="Vector_16" d="M8.44211 12.3288C7.21992 10.4329 5.88119 8.61475 4.43367 6.88477C3.91009 7.70672 5.32318 9.1564 5.87772 10.105C6.51952 11.2029 7.00369 12.205 7.54415 12.8834C8.03395 12.8834 7.96358 12.3316 8.44211 12.3288Z" fill="white"/>
<path id="Vector_17" d="M14.7751 14.5498C16.4781 13.1423 15.9461 9.49983 16.5513 6.99455C16.1375 7.21411 15.7659 6.95232 15.3296 6.88477C15.5098 9.73346 14.64 12.1177 14.7751 14.5498Z" fill="white"/>
<path id="Vector_18" d="M17.6638 7.7754C18.0719 7.73599 18.1733 7.39257 18.3309 7.10827C17.9931 6.66069 17.447 7.03226 17.4414 7.55302C17.5681 7.57554 17.6159 7.67406 17.6638 7.7754Z" fill="white"/>
<path id="Vector_19" d="M10.4437 7.91813C10.1031 8.05325 11.3783 9.0441 12.5549 8.48112C12.7905 8.37258 13.0042 8.22185 13.1855 8.03636C13.2812 7.73516 12.9912 7.95473 12.6028 8.25874C12.2228 8.50082 10.9532 8.40793 10.4437 7.91813Z" fill="#303849"/>
<path id="Vector_20" d="M22.4491 8.21665C22.4537 8.15742 22.4455 8.09789 22.4249 8.04216C22.4044 7.98643 22.372 7.93582 22.33 7.89381C22.288 7.8518 22.2373 7.8194 22.1816 7.79884C22.1259 7.77828 22.0663 7.77004 22.0071 7.7747C22.0025 7.83393 22.0107 7.89345 22.0313 7.94919C22.0518 8.00492 22.0842 8.05553 22.1262 8.09754C22.1682 8.13954 22.2189 8.17194 22.2746 8.19251C22.3303 8.21307 22.3898 8.2213 22.4491 8.21665Z" fill="white"/>
<path id="Vector_21" d="M17.4413 7.89648C17.0219 7.99782 16.4983 8.57769 16.7742 9.00838C16.867 8.49606 17.3484 8.38347 17.4413 7.89648Z" fill="white"/>
<path id="Vector_22" d="M20.7744 9.77246C21.4387 9.50786 21.6499 8.79569 22.1087 8.32841C21.5344 8.19892 20.8026 9.35585 20.7744 9.77246Z" fill="white"/>
<path id="Vector_23" d="M7.44238 8.55164C7.57468 9.04989 8.32345 8.92884 8.77665 9.11463C8.72317 8.56853 7.86181 8.36586 7.44238 8.55164Z" fill="#303849"/>
<path id="Vector_24" d="M17.6632 11.3297C17.4775 11.7463 18.1784 11.8335 17.8856 11.994C17.5816 12.0756 17.6632 11.7744 17.4409 11.7744C17.3649 12.2135 16.8779 12.2586 16.7737 12.6611C16.8976 12.7371 17.3367 13.0299 17.1087 13.1059C16.9623 13.1228 16.7737 12.6555 16.6611 12.9961C17.0102 13.0918 17.0271 13.5197 17.3311 13.6604C18.0067 12.8159 18.6062 11.9011 19.4423 11.2171C20.3515 11.7519 21.1847 12.3627 22.2178 12.7737C22.3473 12.4922 22.6597 12.4021 22.6625 11.994C21.9532 11.887 21.9307 10.8117 21.2185 11.3297C21.2663 11.1157 21.4578 11.0482 21.4409 10.7667C21.2832 10.7192 21.1398 10.6335 21.0233 10.5171C20.9069 10.4006 20.8212 10.2572 20.7737 10.0995C20.3628 10.1333 20.4725 10.6879 19.9968 10.6625C20.0221 10.2431 20.4134 10.1896 20.4416 9.77301C20.1601 9.4493 19.9208 9.10869 19.4423 8.99609C19.3409 9.22973 19.1045 9.32262 19.1073 9.66041C19.1777 9.96161 19.5718 9.94191 19.5521 10.3276C19.2706 10.2009 19.1805 9.88561 18.778 9.88561C18.8371 10.2769 18.381 10.1671 18.4402 10.5499C18.3135 10.8765 18.975 10.9637 18.6625 11.1129C18.4655 11.0116 18.3388 10.8314 18.0996 10.7779C18.0461 11.0425 18.0123 11.3437 17.6632 11.3297Z" fill="white"/>
<path id="Vector_25" d="M17.886 10.5495C17.7115 9.79794 16.8614 9.72475 16.5518 9.10547C16.5884 9.99498 17.4328 10.0766 17.886 10.5495Z" fill="white"/>
<path id="Vector_26" d="M8.33221 10.9932C8.47296 10.7286 8.73756 10.585 8.66437 10.1036C8.35166 10.0425 8.05114 9.93024 7.77486 9.77148C7.38358 10.2894 7.77767 10.8327 8.33221 10.9932Z" fill="white"/>
<path id="Vector_27" d="M11.9996 9.99597C11.9292 10.4041 12.951 10.2775 12.7765 9.88619C12.4134 9.82145 12.2585 9.95938 11.9996 9.99597Z" fill="#303849"/>
<path id="Vector_28" d="M16.4415 12.329C16.7849 11.7492 17.3394 11.372 17.5675 10.6626C17.1283 10.5444 17.0045 10.0996 16.4415 10.0996C16.585 10.9188 16.1009 11.69 16.4415 12.329Z" fill="white"/>
<path id="Vector_29" d="M12.777 13.7728C12.1493 13.739 11.789 13.9699 11.1106 13.8826C10.8797 15.8193 12.3998 16.0022 12.9966 17.1057C13.1373 16.4808 13.599 16.6159 14.1225 16.5427C13.7807 14.5733 13.2606 12.639 12.5687 10.7637C12.5574 11.8362 12.7235 12.7482 12.777 13.7728Z" fill="white"/>
<path id="Vector_30" d="M8.88669 11.3301C8.73187 11.8255 9.07529 12.3913 9.44968 11.9944C9.19352 11.8368 9.35115 11.2738 8.88669 11.3301Z" fill="white"/>
<path id="Vector_31" d="M18.6632 12.6614C18.7786 12.3264 19.4485 11.9718 19.2262 11.6621C19.1051 11.9943 18.4352 12.3518 18.6632 12.6614Z" fill="white"/>
<path id="Vector_32" d="M10.6656 14.4414C10.7529 13.9826 10.4939 13.8785 10.553 13.4393C10.1758 13.186 9.42703 13.2986 9.44392 12.6624C9.87461 12.578 10.0069 13.0734 10.3306 12.775C10.3616 12.5217 10.3025 12.3556 10.1082 12.3302C8.54033 12.2374 7.87038 13.2338 7.11035 14.2191C5.43176 14.1625 3.76019 13.9743 2.11106 13.6561C2.56426 13.4084 3.27925 13.4196 3.99706 13.4337C4.10684 12.6737 3.27925 12.8229 2.88798 12.8707C1.90557 13.0086 0.37707 14.0642 0.332031 14.9819C2.35314 16.8538 5.73386 14.1374 7.5523 14.8693C8.43337 14.6244 9.47207 14.0305 10.6656 14.4414Z" fill="white"/>
<path id="Vector_33" d="M15.4424 14.9946C15.8534 14.7131 16.5318 14.0882 16.1067 13.3281C15.3777 14.2965 13.5057 16.3851 15.1074 17.4379C14.8682 17.345 14.9301 16.9509 14.7753 16.7736C15.3045 16.4865 15.5465 15.915 15.4424 14.9946Z" fill="white"/>
<path id="Vector_34" d="M16.8867 13.7727C16.6756 13.7727 16.8107 13.404 16.5517 13.4377C16.6165 14.5046 15.9662 14.8452 15.665 15.5489C16.4673 15.3547 16.8192 14.7016 16.8867 13.7727Z" fill="white"/>
<path id="Vector_35" d="M10.7751 17.4389C10.9271 16.9632 11.1101 16.5156 11.6646 16.4396C11.1017 15.6317 10.4936 14.4101 8.99609 14.883C9.55908 15.7781 9.94472 16.8253 10.7751 17.4389Z" fill="white"/>
<path id="Vector_36" d="M9.10931 16.5523V16.9943C9.19809 16.9555 9.29393 16.9355 9.3908 16.9355C9.48767 16.9355 9.58351 16.9555 9.67229 16.9943C9.35702 16.2737 9.10931 15.4911 8.45062 15.1055C8.5041 15.9162 8.21416 16.2511 8.45062 16.7747C8.76589 16.8029 8.78278 16.5214 9.10931 16.5523Z" fill="white"/>
<path id="Vector_37" d="M17.3315 16.3398C17.8326 16.0132 17.3456 14.8985 16.7686 15.3405C17.0557 15.8106 16.9487 16.0583 17.3315 16.3398Z" fill="white"/>
<path id="Vector_38" d="M15.8875 16.9937C16.031 16.6728 15.9775 16.3547 15.6651 16.2168C15.6932 16.5321 15.5665 16.9796 15.8875 16.9937Z" fill="white"/>
<path id="Vector_39" d="M10.2206 17.7729C9.80396 17.8883 10.001 17.3985 9.77581 17.3281C9.75047 18.2908 8.46968 17.3281 8.10938 17.8911V19.4365H9.88559C10.0151 18.4682 9.69136 18.1979 10.2206 17.7729Z" fill="white"/>
<path id="Vector_40" d="M12.4417 17.4379C12.0335 17.9249 11.752 18.5188 10.9976 18.6596C10.7555 18.6371 10.398 18.1585 10.2207 18.44C10.4712 18.5554 10.2601 19.1381 10.3305 19.4365C11.8843 19.3633 13.4034 19.2535 14.8878 19.1072C14.8569 18.395 14.5078 18.0037 14.4403 17.3281C13.8125 17.3985 12.9568 17.5955 12.4417 17.4379ZM13.2186 19.1072C12.6218 19.0312 12.7795 18.1445 12.8864 17.6603C13.2777 17.8264 13.2664 18.8735 13.2186 19.1072Z" fill="white"/>
<path id="Vector_41" d="M15.3301 17.3294C15.2766 17.6953 15.9719 17.7967 15.9972 17.4392C15.7957 17.3224 15.5584 17.2833 15.3301 17.3294Z" fill="white"/>
<path id="Vector_42" d="M19.4424 17.7727C19.4734 17.4912 19.2876 17.4067 18.9949 17.4377C18.9048 17.8346 19.2313 17.9894 19.4424 17.7727Z" fill="#303849"/>
<path id="Vector_43" d="M13.2184 19.107C13.2663 18.8593 13.2775 17.8262 12.8863 17.6602C12.7793 18.1443 12.6217 19.031 13.2184 19.107Z" fill="#303849"/>
<path id="Vector_44" d="M18.1086 18.2182V17.7734H17.6638C17.5766 18.1563 17.7257 18.3111 18.1086 18.2182Z" fill="#303849"/>
<path id="Vector_45" d="M16.9961 18.1055H16.7737C16.7737 18.173 16.7568 18.2378 16.6611 18.2181V18.4404C16.7315 18.4404 16.7962 18.4573 16.7737 18.5502H16.9961C16.9961 18.4827 17.013 18.4179 17.1087 18.4404V18.2181C17.0411 18.2096 16.9764 18.1984 16.9961 18.1055Z" fill="#303849"/>
<path id="Vector_46" d="M18.8852 18.3281C18.6037 19.4147 17.1737 18.6828 16.6614 19.5498C16.3799 19.6371 16.0308 18.9108 15.9971 19.4372C18.7838 22.0607 21.3876 24.8644 24.4418 27.2176C24.7824 27.0375 25.1371 26.8742 25.2216 26.4379C23.6452 23.9401 22.0501 21.4593 20.4362 18.9953C19.6593 19.0347 19.4228 18.5336 18.8852 18.3281Z" fill="white"/>
<path id="Vector_47" d="M14.3337 20.439C14.4322 20.059 15.0684 20.2138 14.9952 19.6621C12.7952 20.0377 10.5626 20.1867 8.33227 20.1069C7.36112 21.1259 6.30271 22.0773 5.55957 23.3271C6.50257 24.6079 7.62009 25.7114 8.22811 27.3271C8.86147 27.4454 9.10918 27.1723 9.55957 27.1048C9.77632 27.7409 10.2717 28.0956 10.8938 28.3264C10.7528 26.5582 10.3011 24.8287 9.55957 23.2174C10.0043 23.1385 9.84106 23.6846 10.2267 23.6621C11.1247 22.781 11.6342 21.5087 12.6701 20.774C12.7489 21.2554 12.3492 21.2666 12.3351 21.6607C13.2978 22.3307 14.6236 22.6318 15.1134 23.7719C14.6912 23.8535 14.3196 23.3159 14.0043 23.6621C14.1563 23.9436 14.6264 24.287 14.3393 24.6614C13.8523 24.622 13.7116 23.7888 13.2133 24.0984C13.309 24.8556 13.8805 25.1343 14.3393 25.5425C14.9783 24.5178 15.9128 23.7831 16.6672 22.8739C16.5321 22.4573 15.8931 22.5446 15.4484 22.4292C15.105 21.7367 14.5955 21.2103 14.3337 20.439Z" fill="white"/>
<path id="Vector_48" d="M16.2193 22.1056C15.8477 21.4413 15.6563 20.5799 14.9948 20.2168C14.6514 20.8164 15.3467 22.0155 16.2193 22.1056Z" fill="white"/>
<path id="Vector_49" d="M13.5506 26.3274C11.8983 25.8039 14.1502 24.4527 13.5506 26.3274V26.3274Z" fill="white"/>
<path id="Vector_50" d="M13.6639 27.5505C13.2586 27.2296 13.9623 26.737 13.6639 26.5512C13.1263 27.1874 12.7125 26.0108 12.5548 25.5519C12.0707 25.5125 11.9693 25.8559 11.8877 26.2162C12.1382 26.7426 12.7857 26.8721 13.1094 27.3422C13.0559 28.7497 14.2353 29.4337 15.4429 29.231C14.9757 28.5864 14.5985 27.8573 14.1087 27.2324C14.1424 27.5083 13.9567 27.5815 13.6639 27.5505Z" fill="white"/>
<path id="Vector_51" d="M5.66328 26.9922C5.66328 27.2146 5.36209 27.1357 5.44372 27.4398C5.91663 28.7403 7.006 29.5988 8.22204 30.2153C8.65554 30.4376 9.47468 31.0597 9.77588 30.4376C8.4782 29.2188 7.84485 27.3328 5.66328 26.9922Z" fill="white"/>
<path id="Vector_52" d="M9.55371 28.3258C9.71416 28.7565 10.1505 28.9113 10.6797 28.9929C10.5868 28.5482 9.93091 28.1006 9.55371 28.3258Z" fill="white"/>
<path id="Vector_53" d="M8.65625 28.5487C8.92133 29.0725 9.29696 29.5326 9.7572 29.8971C10.2174 30.2616 10.7513 30.5218 11.322 30.6599C11.322 30.0659 11.0405 29.7619 10.88 29.3256C9.81881 29.4663 9.58236 28.1884 8.65625 28.5487Z" fill="white"/>
<path id="Vector_54" d="M6.33398 30.2147C6.56481 30.6848 7.2432 30.7101 8.00042 30.6594C7.73863 30.2062 6.84067 29.753 6.33398 30.2147Z" fill="white"/>
<path id="Vector_55" d="M10.1088 30.4375C10.1088 30.8428 9.79355 30.9357 9.66406 31.2144C10.0047 31.4959 10.6071 31.7774 11.1109 31.5494C11.1 31.2762 10.9938 31.0155 10.8107 30.8124C10.6277 30.6093 10.3794 30.4767 10.1088 30.4375Z" fill="white"/>
<path id="Vector_56" d="M21.5506 7.99414C21.3957 8.50646 20.5907 8.95684 20.6639 9.32841C20.8919 8.88647 21.6885 8.43327 21.5506 7.99414Z" fill="white"/>
<path id="Vector_57" d="M16.6613 16.3414C16.6613 16.5609 16.3601 16.4821 16.4417 16.7861C16.7908 16.91 16.6922 16.7861 17.1088 16.7861C16.9117 16.342 16.6057 15.9548 16.2193 15.6602C15.8393 16.0768 16.4051 16.2147 16.6613 16.3414Z" fill="white"/>
<path id="Vector_58" d="M19.6655 16.661C19.4555 16.4936 19.2314 16.3447 18.9955 16.2163C18.9111 15.7603 19.1672 15.6533 19.1081 15.217C18.3988 15.0397 18.1539 14.3922 18.1088 13.5506C17.6669 13.1903 17.847 14.1895 17.3319 14.1135C17.8639 13.0945 19.2432 12.9172 19.8879 12.0024C20.626 12.3482 21.3324 12.7579 21.9991 13.2268C22.548 13.072 22.7056 12.5259 22.9955 12.115C22.517 11.4084 21.7176 11.0256 21.3291 10.2261C21.7626 9.43515 22.5367 8.98758 22.8858 8.11495C22.6235 7.77449 22.2799 7.5054 21.8865 7.33241C21.3038 7.93761 20.8843 8.69764 20.22 9.22122C19.8175 9.13958 19.9019 8.57378 19.4431 8.55408C18.8013 8.91439 18.5986 9.71101 17.9991 10.1079C17.6838 9.75324 17.0983 9.67442 16.9969 9.10862C17.6922 8.45837 18.2102 7.65331 19.2207 7.33241C19.3388 7.47663 19.4954 7.5844 19.6723 7.6432C19.8492 7.70199 20.0391 7.7094 20.22 7.66457C21.1039 5.95309 19.0434 4.53719 17.2193 4.44148C16.403 5.08047 17.3094 5.77294 17.6641 6.20644C17.3657 6.79757 17.2221 7.54352 16.7746 7.98265C17.4642 6.04317 16.0399 4.48652 14.8886 5.31692C13.5881 6.25429 15.3221 9.9531 14.3256 11.5407C13.8001 11.3291 13.3391 10.9836 12.9885 10.5386C14.2496 9.06358 13.3938 6.05725 12.8646 4.09806C12.4537 3.9911 13.3854 3.57167 13.2362 3.20573C12.9547 2.6709 12.0905 2.1248 11.3164 1.55056C10.638 1.05232 10.0328 0.534376 9.95401 -0.0117188C8.99413 0.213475 6.44099 3.44219 6.3284 4.77364C6.21862 6.03191 7.54444 6.83698 7.32488 7.99391C7.15317 8.20503 6.8942 7.83628 6.66056 8.10651C6.47759 8.70046 7.28265 8.88624 6.88294 9.32818C5.8752 8.33452 4.97442 7.2367 4.77175 5.44078C5.0082 4.9735 5.64437 4.90594 5.88082 4.43867C6.30025 1.9925 3.24325 2.74972 3.77245 4.43867C1.29814 4.75675 1.64437 8.94254 3.10531 10.1051C3.68237 10.1051 3.53037 9.64345 3.6683 9.44078C3.75556 9.78139 3.89068 9.79546 4.23128 9.66034C4.65352 9.12269 3.58667 8.63853 4.0089 8.10651C5.02227 8.83557 5.43888 10.1586 6.01031 11.3296C5.64437 11.2874 5.78512 10.7385 5.34317 10.7666C4.72952 11.0481 3.93572 11.1382 3.34458 11.4337C3.23199 11.8672 3.58948 12.0784 3.34458 12.3233C1.73163 12.7117 0.380473 13.362 0.0117188 14.989C1.46985 17.1396 4.75767 15.8335 7.23199 15.4337C7.88505 16.1347 7.35866 16.6132 7.23199 17.1002C7.37836 17.1537 7.71052 17.0214 7.76682 17.1649C7.41984 17.4184 7.08717 17.6909 6.77034 17.9812L6.36499 17.6069C6.36499 17.6069 6.11728 17.3732 5.49237 17.7842L7.1025 19.9066L7.52474 19.5745C7.54884 19.5404 7.56869 19.5036 7.58385 19.4647C7.57683 19.7278 7.64731 19.9872 7.78652 20.2107C6.91672 21.0551 5.98779 21.8264 5.2531 22.806C4.12713 21.8686 1.44451 22.1586 1.35443 23.8166C1.35443 24.0587 1.47266 24.2501 1.39384 24.5738C1.42199 24.6807 1.61341 24.6188 1.5937 24.7736C1.74571 25.9784 1.87519 27.2085 1.99061 28.433H5.1405C5.16302 28.129 5.19961 27.8391 5.22776 27.5407C5.37132 28.0418 5.79075 28.5766 5.88645 29.0889C3.78652 29.3704 1.32629 29.2663 0.11024 30.4232C2.58174 31.0931 6.02157 31.7603 8.99694 31.2001C9.70911 31.4591 10.3031 32.2867 11.3305 31.8672C11.5064 31.5479 11.6166 31.1966 11.6548 30.8341C11.693 30.4715 11.6583 30.105 11.5529 29.7561C13.163 29.3366 14.7366 29.8743 15.8879 29.3113C15.6683 28.5682 15.0997 28.1853 14.7619 27.5351C14.7197 27.1213 15.2123 27.2536 15.0941 26.7582C14.8126 26.457 14.1032 26.5639 14.0948 25.9784C14.9392 25.3591 16.8928 23.7603 16.9829 22.8679C17.1489 21.2606 14.7985 20.3036 15.2067 18.426C15.3474 18.578 15.7302 18.4936 15.8738 18.6456C15.8231 18.9665 15.4797 18.9946 15.5388 19.4225C18.5874 22.1164 21.3544 25.0917 24.5466 27.6449C26.4128 26.7638 24.8984 25.2494 24.1018 23.9855C22.5986 21.5843 20.7267 18.8116 19.6655 16.661ZM17.8865 14.4401C17.9962 14.8482 18.3734 15.0031 18.5536 15.3296C18.5254 16.9848 19.8625 17.2775 20.22 18.5499C19.004 17.4661 17.6162 18.5921 16.3326 18.9946C16.1159 18.578 16.586 18.4091 16.22 17.9953C18.0976 18.1304 18.472 15.6308 17.2193 14.7722C17.5093 14.7272 17.5543 14.4401 17.8865 14.4401ZM15.6655 15.5492C15.9667 14.8539 16.6169 14.5048 16.5522 13.438C16.8112 13.4042 16.676 13.7617 16.8872 13.7729C16.8196 14.7019 16.4677 15.3549 15.6655 15.5492ZM15.8879 16.9932C15.567 16.9932 15.6824 16.5316 15.6655 16.2163C15.9751 16.3542 16.0314 16.6723 15.8879 16.9932ZM15.3249 6.88483C15.7612 6.95239 16.1328 7.21418 16.5466 6.99461C15.9413 9.49989 16.4734 13.1424 14.7703 14.5499C14.6409 12.1178 15.5107 9.73353 15.3305 6.88483H15.3249ZM16.4508 10.1051C17.0138 10.1051 17.1236 10.5442 17.5768 10.6681C17.3629 11.3774 16.8083 11.7546 16.4508 12.3345C16.1018 11.6899 16.586 10.9186 16.4424 10.1051H16.4508ZM17.3319 16.3401C16.9491 16.0587 17.0504 15.8222 16.7689 15.3408C17.346 14.8876 17.833 16.0024 17.3319 16.3401ZM16.22 15.673C16.6064 15.9676 16.9124 16.3549 17.1095 16.799C16.6929 16.799 16.7915 16.9228 16.4424 16.799C16.3608 16.495 16.662 16.5738 16.662 16.3542C16.4058 16.2135 15.84 16.0755 16.22 15.6617V15.673ZM18.6634 12.6723C18.4354 12.3627 19.1053 12.0052 19.2264 11.673C19.4487 11.9714 18.79 12.3261 18.6634 12.661V12.6723ZM22.4494 8.21629C22.3902 8.22095 22.3307 8.21271 22.275 8.19215C22.2192 8.17159 22.1686 8.13919 22.1266 8.09718C22.0846 8.05518 22.0522 8.00456 22.0316 7.94883C22.0111 7.8931 22.0028 7.83357 22.0075 7.77435C22.0667 7.76969 22.1262 7.77792 22.182 7.79849C22.2377 7.81905 22.2883 7.85145 22.3303 7.89345C22.3723 7.93546 22.4047 7.98607 22.4253 8.04181C22.4459 8.09754 22.4541 8.15707 22.4494 8.21629ZM22.1173 8.32889C21.6584 8.79616 21.4473 9.50834 20.783 9.77294C20.8027 9.35633 21.5346 8.1994 22.1088 8.32889H22.1173ZM21.5543 7.99391C21.6922 8.43304 20.8956 8.88624 20.6676 9.32818C20.5916 8.95661 21.3967 8.50623 21.5515 7.99391H21.5543ZM18.1088 10.7722C18.3397 10.837 18.4663 11.0059 18.6718 11.1072C18.9843 10.9637 18.3228 10.8764 18.4494 10.5442C18.3903 10.153 18.8463 10.2627 18.7872 9.87991C19.1898 9.87991 19.2827 10.1952 19.5613 10.3218C19.581 9.93339 19.1869 9.95591 19.1166 9.65471C19.1166 9.31692 19.3502 9.22403 19.4515 8.99039C19.9301 9.10299 20.1806 9.44359 20.4508 9.76731C20.4227 10.1839 20.0314 10.2374 20.0061 10.6568C20.4818 10.6878 20.372 10.1333 20.783 10.0938C20.8304 10.2515 20.9162 10.3949 21.0326 10.5114C21.149 10.6278 21.2925 10.7135 21.4501 10.761C21.467 11.0425 21.2756 11.1044 21.2278 11.324C21.9399 10.806 21.9625 11.8869 22.6718 11.9883C22.6718 12.3964 22.3565 12.4893 22.2271 12.768C21.194 12.357 20.3608 11.7462 19.4515 11.2114C18.6071 11.8954 18.0159 12.8131 17.3404 13.6547C17.0363 13.514 17.0195 13.0917 16.6704 12.9904C16.783 12.6498 16.9716 13.1171 17.118 13.1002C17.3601 13.0242 16.9069 12.7314 16.783 12.6554C16.8984 12.2529 17.3741 12.2078 17.4501 11.7687C17.6725 11.7687 17.5909 12.0699 17.8949 11.9883C18.1764 11.8278 17.4867 11.7406 17.6725 11.324C18.0131 11.3437 18.0469 11.0425 18.1088 10.7722ZM19.1081 5.98687C19.0181 6.40911 18.3734 6.15858 18.441 5.7645C18.6746 5.5393 18.8745 5.90243 19.1081 5.99532V5.98687ZM18.3312 7.11284C18.1736 7.39433 18.0722 7.74057 17.6641 7.77998C17.6162 7.67864 17.5684 7.58012 17.4417 7.5576C17.4473 7.03121 17.9934 6.65964 18.3312 7.10721V7.11284ZM17.4417 7.89539C17.3488 8.39363 16.8787 8.50623 16.7746 9.00728C16.4987 8.56534 17.0223 7.98547 17.4417 7.89539ZM17.8865 10.5611C17.4333 10.0882 16.5888 9.99813 16.5522 9.11706C16.8618 9.72509 17.7119 9.79827 17.8865 10.5499V10.5611ZM14.776 5.88554C15.1926 4.77927 17.5487 6.07414 16.22 6.66245C16.2771 6.31315 16.1975 5.95528 15.9976 5.66316C14.6943 5.47174 15.0856 6.96928 14.9955 7.99391C14.5311 7.68427 14.8886 6.54986 14.776 5.88554ZM14.441 17.3282C14.5086 18.0038 14.8576 18.395 14.8886 19.1072C13.406 19.2536 11.8916 19.3634 10.3453 19.4366C10.2749 19.1382 10.486 18.5555 10.2355 18.4401C10.4128 18.1586 10.7703 18.6371 11.0124 18.6596C11.7612 18.5189 12.0568 17.9249 12.4565 17.438C12.9575 17.5956 13.8133 17.3986 14.441 17.3282ZM9.88645 19.4366H8.11024V17.8827C8.47055 17.3197 9.75134 18.2909 9.77667 17.3197C10.0019 17.3901 9.80482 17.8827 10.2214 17.7645C9.69223 18.198 10.0159 18.4682 9.88645 19.4366ZM8.99694 14.882C10.4945 14.4091 11.0997 15.6308 11.6655 16.4387C11.1025 16.5147 10.928 16.9622 10.776 17.438C9.94557 16.8243 9.55992 15.7772 8.99694 14.882ZM14.1088 16.5513C13.5993 16.616 13.1377 16.4809 12.9829 17.1142C12.3861 16.0108 10.866 15.8278 11.0969 13.8912C11.7753 13.9784 12.1356 13.7476 12.7633 13.7814C12.7098 12.7568 12.5437 11.8504 12.5409 10.7807C13.2371 12.6528 13.7619 14.5843 14.1088 16.5513ZM12.5325 3.32115L8.3101 2.06569C8.35232 2.00939 8.39455 1.95872 8.43959 1.90524L12.8787 3.23107L12.9801 3.3127C12.8449 3.3127 12.6901 3.31833 12.5325 3.32678V3.32115ZM8.22284 5.99532C8.27833 6.33223 8.25649 6.67736 8.15896 7.00459C8.06142 7.33181 7.89075 7.63258 7.65985 7.88413C7.86253 7.26766 8.02016 6.60897 8.22284 5.99532ZM7.88786 5.88554C8.20032 6.09666 7.73586 6.46259 7.77526 6.77224C7.29391 6.6146 7.74712 6.0854 7.88786 5.88554ZM8.3101 4.55127C8.22114 4.62705 8.15246 4.72379 8.11024 4.83276C7.95214 4.71952 7.82607 4.56726 7.7443 4.39081M8.58878 4.36267L7.46281 4.02769C7.36617 3.93719 7.23765 3.88861 7.10532 3.89257C7.1315 3.81793 7.1635 3.74546 7.20102 3.67583L8.90968 4.18533C8.79333 4.23975 8.68542 4.29605 8.58596 4.35422L8.58878 4.36267ZM9.30095 4.01925L7.33051 3.43656C7.37836 3.35774 7.42903 3.27611 7.48533 3.19166L9.73726 3.86442C9.59089 3.90665 9.43888 3.9545 9.29814 4.0108L9.30095 4.01925ZM10.2214 3.72368L7.65422 2.95802L7.81186 2.73846L10.7056 3.60264L10.2214 3.72368ZM11.2686 3.49004L7.98075 2.502L8.1412 2.2937L11.8316 3.39152C11.643 3.41967 11.4544 3.45063 11.2658 3.4816L11.2686 3.49004ZM11.415 2.0488L8.96035 1.31692C9.00539 1.26344 9.04761 1.21277 9.09265 1.16492L11.0884 1.77857L11.415 2.0488ZM10.5536 1.33381L9.28406 0.942539L9.37977 0.835572L10.2974 1.11706L10.5536 1.33381ZM9.7823 0.666677L9.58526 0.607563L9.63874 0.545635L9.7823 0.666677ZM8.77456 1.53086L11.9554 2.47948L12.3157 2.78068L8.63381 1.68286L8.77456 1.53086ZM7.33895 5.88554C7.19821 5.47174 6.70278 4.94535 6.89701 4.55127C7.36147 4.64134 7.27421 5.28314 7.89631 5.2184C7.71334 5.45204 7.688 5.83205 7.33051 5.88554H7.33895ZM8.34106 8.32889C8.18343 7.43937 9.35162 6.01221 8.67322 4.99602C9.23621 3.44219 12.8112 3.74901 12.4931 3.88413C12.5409 4.09525 12.7746 4.16562 12.9491 5.15084C12.9491 5.15084 14.0047 8.68075 13.0054 10.2177C12.1243 10.7807 11.0575 10.1698 10.3397 9.88554C10.3228 10.2346 10.6211 10.2656 10.9026 10.3275C10.3734 10.6315 9.98498 9.83768 9.45859 9.76449C9.74008 10.7807 11.0181 11.0115 12.1243 10.8764C11.9178 11.3101 11.6133 11.6898 11.2348 11.9855C10.5705 11.6449 9.94838 11.2733 9.33192 10.8848C9.41636 10.2796 9.15739 10.0235 9.21932 9.44078C8.11024 9.79827 7.36992 9.05514 6.99835 8.31481L8.34106 8.32889ZM9.45296 11.9883C9.0842 12.3852 8.74078 11.8194 8.88997 11.324C9.35162 11.2733 9.19398 11.8363 9.44451 11.9939L9.45296 11.9883ZM8.65633 10.1051C8.72952 10.5865 8.46492 10.73 8.32417 10.9946C7.76119 10.8313 7.37555 10.2881 7.76119 9.77294C8.03921 9.93227 8.34168 10.0445 8.65633 10.1051ZM5.44451 4.21629C4.93501 4.17125 4.5747 3.97702 4.555 3.43937C4.83367 2.59771 5.97372 3.58293 5.44451 4.21629ZM5.33191 4.43867C4.94064 4.85528 4.20595 4.50904 4.22002 3.87568C4.65915 4.00236 4.73515 4.48089 5.33191 4.43867ZM3.5557 7.21699C3.46839 7.22361 3.38091 7.20642 3.30259 7.16726C3.22427 7.1281 3.15804 7.06844 3.11094 6.99461C2.49166 7.27611 2.58455 7.88131 2.66619 8.66105C1.93994 7.40278 2.593 5.56464 3.33332 4.77364C3.71897 4.86372 3.76119 4.60756 4.11024 4.66105C4.14683 5.22403 3.688 5.2747 3.77808 5.88554C4.13557 5.98406 3.9329 5.52241 4.11024 5.44078C4.32417 5.48582 4.11024 5.94746 4.555 5.77294C4.18061 6.20644 3.62326 6.47104 3.5557 7.21699ZM5.88645 10.1051C5.32347 9.15647 3.91601 7.70679 4.4424 6.88483C5.88703 8.61505 7.22293 10.4332 8.4424 12.3289C7.96387 12.3289 8.03424 12.8919 7.55289 12.8919C7.02087 12.205 6.52826 11.2029 5.88645 10.1051ZM7.55289 14.8905C5.73445 14.1698 2.35373 16.875 0.332619 15.0031C0.377658 14.0854 1.90616 13.0326 2.88857 12.8919C3.27984 12.8356 4.10743 12.6864 3.99764 13.4549C3.27984 13.4549 2.56485 13.4295 2.11165 13.6772C3.76078 13.9954 5.43235 14.1837 7.11094 14.2402C7.87097 13.255 8.54092 12.2698 10.1088 12.3514C10.3031 12.3767 10.3622 12.5428 10.3312 12.7962C10.0188 13.0945 9.87519 12.5991 9.44451 12.6836C9.44451 13.3197 10.1764 13.2071 10.5536 13.4605C10.4945 13.8912 10.7534 14.0038 10.6662 14.4626C9.47266 14.0291 8.43396 14.623 7.55289 14.882V14.8905ZM8.4424 15.1128C9.09546 15.4985 9.34881 16.281 9.66408 17.0017C9.57529 16.9629 9.47946 16.9429 9.38258 16.9429C9.28571 16.9429 9.18988 16.9629 9.10109 17.0017V16.5513C8.77456 16.5203 8.75767 16.8018 8.43396 16.7736C8.20595 16.2501 8.49588 15.9151 8.4424 15.1044V15.1128ZM7.53037 19.1044C7.3671 18.8426 7.26577 18.6315 7.26577 18.6315L7.688 18.3106C7.64015 18.623 7.58667 18.9355 7.56978 19.2254C7.56319 19.1832 7.54988 19.1424 7.53037 19.1044ZM3.66548 25.179C3.38399 25.8715 4.02861 26.3613 3.90757 26.8539C3.85322 26.9809 3.75406 27.0835 3.62897 27.1422C3.50387 27.2008 3.36158 27.2114 3.22917 27.172C2.68871 26.8651 3.58667 25.7054 2.90827 25.4577C2.45507 25.5252 2.90827 26.2627 2.59018 26.4936C1.91742 26.7525 1.80764 25.8321 2.15106 25.4971C1.86956 25.2747 1.86957 24.8018 1.79356 24.3711C2.84634 24.388 3.72741 24.4415 4.82242 24.3711C4.52685 24.9904 3.94416 24.5034 3.66548 25.179ZM1.47266 24.3345C1.28125 22.4682 4.00609 22.0826 5.13206 23.0565C5.28074 23.3723 5.44515 23.6805 5.62467 23.9798C5.63705 24.1114 5.63137 24.2439 5.60778 24.3739C5.4614 24.4162 5.59089 24.1797 5.41073 24.2557C4.1778 24.3036 2.38188 24.1656 1.47266 24.3401V24.3345ZM5.54022 24.7005C5.57118 24.6132 5.78793 24.7005 5.74008 24.54C5.68974 24.4105 5.6838 24.2679 5.72319 24.1347C6.43536 25.3085 7.31362 26.4401 7.66548 27.5492C7.00961 27.1663 6.36781 26.7722 5.44451 26.6596C5.38426 26.7198 5.33391 26.7892 5.29532 26.8651C5.37695 26.1417 5.46422 25.4267 5.54022 24.7005ZM6.33403 30.2149C6.84071 29.7532 7.74149 30.2149 8.00046 30.6596C7.24887 30.7103 6.56485 30.6962 6.33403 30.2149ZM8.22284 30.2149C7.00679 29.5984 5.91742 28.7399 5.44451 27.4394C5.36288 27.1354 5.66408 27.2142 5.66408 26.9918C7.84564 27.3324 8.47899 29.2184 9.77667 30.4373C9.47548 31.0537 8.65633 30.4373 8.22284 30.2149ZM9.66408 31.2142C9.79356 30.9327 10.106 30.8426 10.1088 30.4373C10.3817 30.4769 10.6318 30.6116 10.8151 30.8176C10.9985 31.0235 11.1032 31.2876 11.1109 31.5632C10.6071 31.7715 10.0047 31.4844 9.66408 31.2142ZM8.65633 28.5485C9.574 28.1881 9.81045 29.4661 10.8801 29.3254C11.0378 29.7617 11.3221 30.0657 11.3221 30.6596C10.7514 30.5216 10.2175 30.2614 9.75729 29.8969C9.29705 29.5324 8.92141 29.0723 8.65633 28.5485ZM9.54585 28.3261C9.92305 28.1009 10.5789 28.5484 10.6718 28.9932C10.1511 28.9116 9.71474 28.7568 9.55429 28.3261H9.54585ZM12.9885 28.661C12.476 28.7532 11.955 28.79 11.4347 28.7708C11.2264 27.6646 11.1757 26.4204 10.8717 25.438C10.776 25.1255 10.5226 24.8581 10.5367 24.5485C10.5902 23.4929 11.6627 23.0875 11.9836 22.1051C12.7858 22.7413 13.0673 23.5745 12.9801 24.8834C12.1891 25.3366 11.5247 25.4464 11.6486 26.3275C11.7668 27.0509 13.3404 27.5998 12.9969 28.661H12.9885ZM13.5515 26.3275C11.8991 25.8039 14.1511 24.4527 13.5515 26.3275V26.3275ZM15.4431 29.2156C14.2468 29.4183 13.0561 28.737 13.1095 27.3268C12.7858 26.8708 12.1384 26.7413 11.8879 26.2008C11.9695 25.8405 12.0708 25.4971 12.555 25.5365C12.7126 25.9953 13.118 27.172 13.6641 26.5358C13.9625 26.7216 13.2587 27.2142 13.6641 27.5351C13.9456 27.566 14.1426 27.4929 14.1088 27.2029C14.5958 27.8419 14.9758 28.571 15.4431 29.2156ZM16.662 22.882C15.9076 23.7912 14.973 24.5259 14.334 25.5506C13.8865 25.1424 13.315 24.8637 13.2081 24.1065C13.695 23.7884 13.8358 24.6216 14.334 24.6695C14.6155 24.2951 14.1511 23.9404 13.9991 23.6702C14.3143 23.324 14.6859 23.8616 15.1081 23.78C14.6183 22.6399 13.2925 22.3387 12.3298 21.6688C12.3298 21.2747 12.7436 21.2634 12.6648 20.7821C11.6233 21.5168 11.1194 22.7891 10.2214 23.6702C9.82734 23.6927 9.99905 23.1466 9.55429 23.2254C10.2959 24.8368 10.7475 26.5663 10.8886 28.3345C10.2665 28.1037 9.7626 27.749 9.55429 27.1128C9.10391 27.1804 8.85619 27.4534 8.22284 27.3352C7.61481 25.7195 6.49729 24.616 5.55429 23.3352C6.30306 22.0854 7.36147 21.1424 8.33262 20.115C10.5632 20.192 12.7959 20.0401 14.9955 19.6618C15.0687 20.2247 14.4325 20.0587 14.334 20.4387C14.5958 21.21 15.1053 21.7363 15.4431 22.4373C15.8879 22.5527 16.5381 22.4654 16.662 22.882ZM16.22 22.1051C15.3474 22.015 14.6521 20.8159 14.9955 20.2163C15.6683 20.5794 15.8485 21.4408 16.22 22.1051ZM14.776 16.7736C14.9308 16.951 14.8689 17.3366 15.1081 17.438C13.5064 16.3852 15.3896 14.2965 16.1074 13.3282C16.5325 14.0882 15.8541 14.7019 15.4431 14.9946C15.5473 15.9151 15.3052 16.4865 14.776 16.7736ZM15.339 17.3366C15.5673 17.2906 15.8046 17.3296 16.0061 17.4464C15.9751 17.7955 15.277 17.6941 15.3305 17.3282L15.339 17.3366ZM24.448 27.2254C21.3882 24.8637 18.79 22.0601 15.9976 19.4366C16.0314 18.9102 16.3692 19.6364 16.662 19.5492C17.1743 18.6822 18.5986 19.414 18.8857 18.3275C19.4234 18.533 19.6599 19.034 20.4424 18.9946C22.0544 21.4549 23.6495 23.9357 25.2278 26.4373C25.1349 26.8736 24.7802 27.0368 24.4396 27.217L24.448 27.2254Z" fill="#303849"/>
<path id="Vector_59" d="M12.5544 6.88454C12.2729 6.77194 11.8084 6.69031 11.6649 6.99432C11.9182 7.21952 12.7655 7.01966 12.7655 7.01966L12.7965 6.77194C11.5466 5.98658 11.4031 5.58123 11.4143 5.41797C11.0878 6.23993 12.3404 6.3103 12.5544 6.88454Z" fill="#303849"/>
<path id="Vector_60" d="M103.727 19.8057C103.727 19.583 103.793 19.3653 103.916 19.1801C104.04 18.9949 104.216 18.8506 104.422 18.7654C104.627 18.6802 104.854 18.6579 105.072 18.7013C105.291 18.7448 105.491 18.852 105.649 19.0095C105.806 19.1669 105.913 19.3676 105.957 19.586C106 19.8044 105.978 20.0308 105.893 20.2365C105.808 20.4423 105.663 20.6181 105.478 20.7419C105.293 20.8656 105.075 20.9316 104.853 20.9316C104.554 20.9316 104.268 20.813 104.056 20.6018C103.845 20.3907 103.727 20.1043 103.727 19.8057Z" fill="#F99D1E"/>
<path id="Vector_61" d="M103.94 15.1758L104.222 15.7078C104.131 15.7856 104.057 15.8814 104.005 15.9893C103.963 16.0987 103.942 16.2153 103.943 16.3327C103.939 16.541 104.015 16.7429 104.157 16.8957C104.227 16.9692 104.312 17.027 104.406 17.0653C104.501 17.1036 104.602 17.1216 104.703 17.1181C104.802 17.1221 104.9 17.1051 104.991 17.0682C105.082 17.0313 105.165 16.9754 105.232 16.9041C105.303 16.8291 105.358 16.7405 105.393 16.6438C105.428 16.547 105.444 16.444 105.438 16.3412C105.446 16.2157 105.425 16.0902 105.376 15.9744C105.327 15.8586 105.252 15.7558 105.156 15.674L105.503 15.2152C105.658 15.35 105.785 15.5144 105.875 15.6988C105.966 15.8831 106.02 16.0837 106.032 16.2889C106.045 16.4941 106.016 16.6997 105.949 16.8938C105.881 17.0878 105.775 17.2665 105.638 17.4193C105.428 17.6244 105.157 17.7547 104.866 17.7898C104.575 17.8249 104.28 17.763 104.028 17.6135C103.82 17.4909 103.651 17.3124 103.541 17.0984C103.431 16.8808 103.371 16.6414 103.367 16.3978C103.362 16.1542 103.412 15.9126 103.513 15.6909C103.609 15.4857 103.756 15.3084 103.94 15.1758Z" fill="#F99D1E"/>
<path id="Vector_62" d="M103.364 13.408C103.364 13.1713 103.425 12.9384 103.542 12.7325C103.658 12.5287 103.825 12.3594 104.028 12.2417C104.231 12.124 104.461 12.0622 104.696 12.0625C104.932 12.0615 105.164 12.1227 105.368 12.2399C105.573 12.3547 105.742 12.5231 105.858 12.7268C105.977 12.9341 106.038 13.1692 106.036 13.408C106.038 13.5817 106.005 13.7541 105.938 13.9144C105.872 14.0747 105.772 14.2195 105.647 14.3398C105.461 14.5248 105.224 14.6508 104.966 14.7021C104.708 14.7535 104.441 14.7279 104.198 14.6286C103.954 14.5293 103.746 14.3606 103.597 14.1436C103.449 13.9266 103.368 13.6708 103.364 13.408ZM103.964 13.408C103.961 13.5 103.978 13.5916 104.013 13.6765C104.049 13.7615 104.102 13.8379 104.169 13.9007C104.24 13.9673 104.323 14.0193 104.414 14.0536C104.505 14.0879 104.601 14.1038 104.699 14.1005C104.897 14.1084 105.09 14.0375 105.236 13.9035C105.304 13.8403 105.357 13.7634 105.392 13.6779C105.428 13.5925 105.445 13.5005 105.442 13.408C105.443 13.3151 105.426 13.2229 105.39 13.1371C105.354 13.0514 105.301 12.974 105.233 12.9098C105.085 12.7837 104.896 12.7144 104.701 12.7144C104.506 12.7144 104.318 12.7837 104.169 12.9098C104.103 12.9727 104.05 13.0487 104.015 13.1331C103.98 13.2174 103.962 13.3082 103.964 13.3996V13.408Z" fill="#F99D1E"/>
<path id="Vector_63" d="M103.428 11.5547V10.9073H103.71C103.591 10.8076 103.495 10.6838 103.428 10.5442C103.369 10.4066 103.339 10.2578 103.341 10.1079C103.338 9.95629 103.378 9.80696 103.456 9.67719C103.539 9.54547 103.657 9.43928 103.797 9.37037C103.655 9.27513 103.538 9.14662 103.456 8.99598C103.378 8.84779 103.338 8.68223 103.341 8.51463C103.338 8.34642 103.382 8.18065 103.468 8.03609C103.546 7.91172 103.66 7.81367 103.794 7.7546C104.007 7.68343 104.232 7.65288 104.456 7.66453H105.948V8.30914H104.658C104.457 8.28946 104.254 8.32651 104.073 8.41611C104.021 8.45159 103.98 8.49983 103.953 8.55608C103.926 8.61234 103.914 8.67469 103.918 8.73701C103.92 8.83852 103.953 8.93694 104.014 9.0185C104.078 9.1076 104.167 9.17531 104.27 9.21273C104.442 9.26262 104.621 9.28355 104.799 9.27466H105.948V9.91646H104.715C104.549 9.9093 104.383 9.92637 104.222 9.96713C104.132 9.99306 104.053 10.0462 103.994 10.1191C103.942 10.189 103.916 10.2743 103.918 10.3612C103.92 10.4627 103.953 10.5611 104.014 10.6427C104.081 10.7323 104.173 10.7999 104.278 10.8369C104.453 10.8877 104.634 10.9096 104.816 10.9017H105.942V11.5547H103.428Z" fill="#F99D1E"/>
<path id="Vector_64" d="M38.258 5.47415L40.2059 7.70919H44.0511L40.5128 4.00194C40.1221 3.61025 39.6375 3.32531 39.1053 3.17436C38.5459 2.98243 37.9598 2.87983 37.3685 2.87035C36.6512 2.85534 35.9378 2.98061 35.2686 3.2391V4.76479C35.5442 4.58909 35.865 4.49717 36.1919 4.50018C36.8646 4.50018 37.5571 4.82671 38.258 5.47415Z" fill="#303849"/>
<path id="Vector_65" d="M99.1081 7.73625C99.1081 7.73625 97.8076 5.14371 95.8709 4.029C94.7815 3.40409 93.7006 2.97622 92.493 2.97622C91.671 2.95473 90.8578 3.14883 90.1341 3.5392C89.7708 3.7359 89.4685 4.02876 89.2605 4.38573C89.0525 4.74271 88.9467 5.15004 88.9547 5.56313C88.9666 5.97516 89.0612 6.38059 89.2329 6.75534C89.4045 7.1301 89.6497 7.46654 89.954 7.74469H28.0342V9.30416H32.3692C33.2024 9.67948 33.619 10.4067 33.619 11.4857C33.6364 11.8158 33.584 12.1459 33.4651 12.4544C33.3463 12.7629 33.1637 13.0429 32.9293 13.276C32.6855 13.4989 32.4002 13.6715 32.0896 13.7841C31.779 13.8966 31.4493 13.9468 31.1193 13.9319C30.133 13.8887 29.1698 13.619 28.3044 13.1437V15.6152H28.7154C29.2784 15.6152 29.8939 16.15 30.562 17.2197C31.5697 18.8158 32.2509 19.8038 32.6112 20.1923C33.0715 20.6997 33.6335 21.1046 34.2606 21.3806C34.8877 21.6565 35.5658 21.7974 36.2509 21.794C37.1156 21.7764 37.9715 21.6166 38.7844 21.321L39.4768 19.0691C38.5385 19.6321 37.7954 19.9136 37.2474 19.9136C36.4611 19.9136 35.6495 19.1423 34.8125 17.5997C34.3509 16.759 34.0947 16.303 34.044 16.2317C33.6725 15.7604 33.161 15.4194 32.5831 15.2577C33.6337 15.2465 34.6678 14.9952 35.6063 14.523C36.6478 13.9431 37.1695 13.0921 37.1714 11.9699C37.1648 11.3873 37.0057 10.8166 36.7098 10.3147C36.5929 10.0719 36.4262 9.8565 36.2206 9.68239C36.0149 9.50828 35.775 9.37941 35.5162 9.30416H40.9997V20.8453H44.2819V9.30416H57.6077V10.8298H50.1229V12.4597H51.6232C51.9007 12.5824 52.1485 12.7633 52.3501 12.9901C52.5516 13.2169 52.7021 13.4843 52.7914 13.7742C52.9372 14.3858 53.0137 15.0119 53.0194 15.6405C53.0704 16.4475 52.8845 17.2517 52.4846 17.9544C52.3056 18.2998 52.0337 18.5883 51.6994 18.7872C51.3651 18.9862 50.9819 19.0877 50.5929 19.0804C49.1292 19.0804 48.0736 17.9497 47.4262 15.6884L45.7935 18.554C46.3877 19.4646 47.2462 20.1718 48.2537 20.5807C49.04 20.896 50.0994 21.0452 51.4318 21.0283C52.7741 21.0307 54.0683 20.5283 55.0574 19.6208C55.5527 19.1821 55.946 18.6403 56.2096 18.0334C56.4732 17.4265 56.6006 16.7692 56.5831 16.1078C56.5831 14.6722 55.9845 13.4524 54.7872 12.4484H57.6021V20.8453H61.0138V9.30416H66.4747C67.8071 9.84837 68.4564 11.5373 68.4226 14.371C68.4058 16.9251 67.9066 18.2199 66.9251 18.2556C65.9436 18.2913 65.4567 17.6251 65.4642 16.257C65.4438 15.9608 65.4885 15.6637 65.595 15.3866C65.7015 15.1094 65.8672 14.8589 66.0806 14.6525C66.3101 14.4552 66.5813 14.3125 66.8738 14.235C67.1663 14.1575 67.4725 14.1472 67.7696 14.2049L66.9251 12.6821C65.6443 12.6117 64.6338 12.8566 63.9019 13.4168C63.063 14.0304 62.653 14.9772 62.6718 16.257C62.6886 17.4843 63.0902 18.4311 63.8765 19.0973C64.6084 19.7278 65.5936 20.0374 66.821 20.0177C69.9305 19.9483 71.4862 17.9779 71.4881 14.1064C71.4881 11.3534 70.8472 9.7583 69.5655 9.32105H72.3804V20.8453H75.7133V9.30416H77.9427V20.8453H81.2221V9.30416H86.9167C87.7499 9.67948 88.1665 10.4067 88.1665 11.4857C88.1835 11.8156 88.1312 12.1453 88.0129 12.4537C87.8946 12.7621 87.7129 13.0422 87.4796 13.276C86.9854 13.725 86.3339 13.9607 85.6668 13.9319C84.6804 13.8891 83.7171 13.6194 82.8519 13.1437V15.6152H83.2629C83.8259 15.6152 84.4405 16.15 85.1067 17.2197C86.1144 18.8158 86.7956 19.8038 87.1559 20.1923C87.6166 20.6993 88.1786 21.1039 88.8056 21.3798C89.4326 21.6557 90.1106 21.7968 90.7956 21.794C91.6603 21.7759 92.5161 21.6162 93.329 21.321L94.0215 19.0691C93.0813 19.6321 92.3326 19.9136 91.7893 19.9136C91.003 19.9136 90.1913 19.1423 89.3544 17.5997C88.8965 16.759 88.6403 16.303 88.5859 16.2317C88.2144 15.7604 87.7028 15.4194 87.125 15.2577C88.1764 15.2461 89.2113 14.9948 90.151 14.523C91.1925 13.9431 91.7133 13.0921 91.7133 11.9699C91.708 11.3871 91.5488 10.8161 91.2516 10.3147C91.1369 10.074 90.9733 9.85979 90.7712 9.6858C90.5691 9.51181 90.3329 9.38183 90.0778 9.30416H95.8963V20.8453H99.1756V9.30416H100.986V7.73625H99.1081ZM95.2291 7.73625H93.588C93.2326 7.43833 92.8987 7.11569 92.5887 6.77073C92.2807 6.45234 92.091 6.0381 92.0511 5.59691C92.0511 5.16341 92.3326 4.92133 92.9237 4.86784C93.5542 4.79747 94.1791 5.1043 94.7928 5.78832C95.3086 6.31879 95.641 7.00041 95.7414 7.73343L95.2291 7.73625Z" fill="#303849"/>
<path id="Vector_66" d="M35.6001 25.5684V26.0244H35.0681V29.3516H34.1335V28.966C33.8848 29.1553 33.5791 29.2546 33.2665 29.2475C32.822 29.2371 32.3881 29.1099 32.0083 28.8787C31.6155 28.667 31.2846 28.3565 31.0484 27.9779V27.0884C31.3271 27.248 31.6396 27.3396 31.9604 27.3558C32.0603 27.3598 32.16 27.3439 32.2537 27.3091C32.3475 27.2743 32.4334 27.2213 32.5065 27.1532C32.6265 27.0296 32.7008 26.8689 32.7172 26.6975C32.7336 26.5261 32.691 26.3542 32.5966 26.2102C32.5614 26.1543 32.5123 26.1086 32.454 26.0775C32.3958 26.0464 32.3304 26.031 32.2644 26.0328H30.9414V25.5684H35.6001ZM33.427 26.0244C33.5299 26.1023 33.6112 26.2053 33.6629 26.3236C33.7147 26.4419 33.7352 26.5715 33.7225 26.7C33.7291 26.8666 33.6955 27.0324 33.6244 27.1833C33.5534 27.3342 33.447 27.4658 33.3144 27.567C33.0404 27.7637 32.7084 27.8629 32.3714 27.8484C32.2621 27.8479 32.1529 27.8394 32.0449 27.8231C32.1872 28.0558 32.3795 28.2539 32.6078 28.403C32.8238 28.5537 33.0792 28.6379 33.3425 28.6451C33.503 28.6461 33.6608 28.6045 33.7999 28.5243C33.9389 28.4442 34.054 28.3284 34.1335 28.189V26.0244H33.427Z" fill="#303849"/>
<path id="Vector_67" d="M37.7816 28.8365L37.5846 28.4114C37.8773 28.4002 38.0237 28.2932 38.0237 28.0905C38.0221 28.0219 38.0005 27.9552 37.9615 27.8986C37.9225 27.8421 37.8678 27.7982 37.8041 27.7724C37.6788 27.7105 37.5414 27.6769 37.4016 27.6739C36.8142 27.6627 36.5046 27.8991 36.4727 28.3833C36.4571 28.5222 36.4802 28.6626 36.5393 28.7893C36.5984 28.9159 36.6912 29.0238 36.8077 29.1011C37.0425 29.2532 37.3191 29.3281 37.5987 29.315C38.1175 29.3271 38.6213 29.1397 39.0061 28.7914L38.8231 29.5796C38.3414 29.7433 37.8371 29.8306 37.3284 29.8386C36.8951 29.8485 36.4668 29.7436 36.087 29.5346C35.8932 29.4429 35.7295 29.2978 35.6153 29.1163C35.5011 28.9347 35.4411 28.7244 35.4424 28.5099C35.4405 28.2905 35.5088 28.0762 35.6375 27.8984C35.7661 27.7206 35.9483 27.5886 36.1574 27.5219C35.8027 27.4712 35.6169 27.3221 35.5944 27.0743C35.5805 26.9569 35.6027 26.8379 35.658 26.7333C35.7133 26.6287 35.7991 26.5435 35.9041 26.4888C36.1165 26.3748 36.3556 26.3194 36.5965 26.3284H37.6972V26.0244H35.4452V25.5684H39.4509V26.0244H38.6824V26.7844H36.9343C36.7514 26.7844 36.6528 26.8576 36.6528 27.0012C36.6528 27.1447 36.7176 27.1869 36.8499 27.232C37.08 27.1971 37.3124 27.1792 37.5452 27.1785C38.4459 27.1785 38.9273 27.46 38.9949 27.992C39.002 28.1282 38.9661 28.2631 38.8924 28.3778C38.8186 28.4924 38.7107 28.581 38.5839 28.631C38.3653 28.7637 38.116 28.8374 37.8604 28.8449C37.834 28.8446 37.8076 28.8417 37.7816 28.8365Z" fill="#303849"/>
<path id="Vector_68" d="M39.6204 29.3516V26.0244H39.3389V25.5684H41.1235V26.0244H40.5774V29.3516H39.6204Z" fill="#303849"/>
<path id="Vector_69" d="M39.9405 24.8925C40.0122 24.9252 40.0898 24.9424 40.1685 24.9432C40.3213 24.944 40.4688 24.8878 40.5823 24.7855C40.7014 24.6858 40.7894 24.5539 40.8357 24.4055V24.9516C40.734 25.107 40.5955 25.2349 40.4324 25.3238C40.2693 25.4127 40.0868 25.4599 39.9011 25.4611C39.7339 25.4733 39.5669 25.434 39.4226 25.3485C39.2717 25.2759 39.1447 25.1616 39.0566 25.0192L39.5661 24.383C39.5742 24.4946 39.6137 24.6016 39.6799 24.6917C39.7461 24.7819 39.8365 24.8515 39.9405 24.8925ZM40.3684 24.6279C40.3965 24.6011 40.4188 24.5687 40.4338 24.5329C40.4489 24.497 40.4563 24.4585 40.4557 24.4196C40.4563 24.3807 40.4489 24.3422 40.4338 24.3063C40.4188 24.2705 40.3965 24.2381 40.3684 24.2113C40.342 24.1823 40.3099 24.1591 40.274 24.1432C40.2381 24.1273 40.1993 24.1191 40.1601 24.1191C40.1209 24.1191 40.0821 24.1273 40.0462 24.1432C40.0103 24.1591 39.9782 24.1823 39.9518 24.2113C39.9236 24.2381 39.9014 24.2705 39.8864 24.3063C39.8713 24.3422 39.8639 24.3807 39.8645 24.4196C39.8558 24.4814 39.8679 24.5444 39.8989 24.5986C39.9299 24.6529 39.978 24.6952 40.0357 24.7191C40.0934 24.7429 40.1574 24.7469 40.2177 24.7304C40.2779 24.7139 40.3309 24.6779 40.3684 24.6279Z" fill="#303849"/>
<path id="Vector_70" d="M44.8869 26.928C44.7764 26.8546 44.6479 26.8127 44.5154 26.8069C44.4162 26.8074 44.3198 26.8397 44.2403 26.899C44.1607 26.9582 44.1023 27.0414 44.0734 27.1363C43.9982 27.322 43.9627 27.5215 43.9693 27.7218C43.9627 27.9226 44.0063 28.1219 44.0959 28.3016C44.1316 28.3932 44.1943 28.4717 44.2759 28.5265C44.3574 28.5814 44.4537 28.61 44.552 28.6085C44.6862 28.6074 44.8169 28.5651 44.9264 28.4874V26.0244H42.8799V25.5684H48.4V26.0244H45.9144V26.5029C46.1431 26.3575 46.409 26.2813 46.68 26.2833C46.861 26.2762 47.0414 26.3071 47.2096 26.374C47.3779 26.4409 47.5302 26.5424 47.6568 26.6718C47.7833 26.8038 47.8812 26.9603 47.9447 27.1318C48.0081 27.3032 48.0356 27.4858 48.0256 27.6683C48.0325 27.8746 47.994 28.0798 47.9127 28.2695C47.8315 28.4592 47.7095 28.6288 47.5555 28.7661C47.2821 29.0162 46.9239 29.153 46.5534 29.1489C46.4666 29.1485 46.38 29.141 46.2944 29.1264L46.0974 28.4705C46.1431 28.5179 46.1977 28.5556 46.2581 28.5817C46.3185 28.6078 46.3834 28.6217 46.4492 28.6225C46.5473 28.6203 46.6419 28.5857 46.7183 28.5241C46.7947 28.4625 46.8485 28.3773 46.8715 28.2819C46.9388 28.102 46.9722 27.9111 46.97 27.719C46.97 27.1813 46.7645 26.9111 46.3676 26.9111C46.2078 26.914 46.0516 26.9587 45.9144 27.0406V29.3657H44.9264V29.0617C44.7698 29.1493 44.5893 29.1848 44.4112 29.163C44.0205 29.1818 43.636 29.06 43.3275 28.8196C43.1776 28.6941 43.0591 28.5354 42.9814 28.356C42.9037 28.1767 42.8689 27.9817 42.8799 27.7865C42.8625 27.3967 42.9887 27.0141 43.2346 26.7112C43.3606 26.5708 43.5166 26.4607 43.6911 26.389C43.8656 26.3174 44.054 26.2861 44.2423 26.2974C44.399 26.298 44.555 26.3179 44.7068 26.3565L44.8869 26.928Z" fill="#303849"/>
<path id="Vector_71" d="M48.5344 29.3516V26.0244H48.2529V25.5684H50.0348V26.0244H49.4971V29.3516H48.5344Z" fill="#303849"/>
<path id="Vector_72" d="M54.5079 25.5684V26.0244H53.9759V29.3516H53.0047V27.3812H52.3798C52.4105 27.7889 52.3509 28.1983 52.2053 28.5803C52.1203 28.7643 51.9827 28.9189 51.8098 29.0246C51.6369 29.1303 51.4366 29.1824 51.2341 29.1743C51.0675 29.1913 50.8991 29.1752 50.7387 29.1269C50.5783 29.0786 50.4291 28.999 50.2996 28.8928C50.1805 28.7765 50.0881 28.6357 50.0288 28.4802C49.9695 28.3246 49.9447 28.1581 49.9562 27.992C49.9438 27.6958 50.0444 27.406 50.2377 27.1813C50.3326 27.0727 50.4506 26.9868 50.5831 26.9298C50.7156 26.8728 50.8592 26.8462 51.0033 26.852C51.0933 26.8527 51.183 26.8631 51.2707 26.8829L51.4368 27.3868C51.3752 27.3574 51.3081 27.3411 51.2398 27.3389C51.1669 27.3394 51.0958 27.3612 51.0352 27.4017C50.9746 27.4423 50.9273 27.4997 50.8992 27.567C50.8304 27.6978 50.7965 27.8442 50.8006 27.992C50.7969 28.1425 50.8307 28.2915 50.8992 28.4255C50.9247 28.4959 50.9708 28.5569 51.0316 28.6006C51.0924 28.6443 51.1649 28.6686 51.2398 28.6704C51.4227 28.6704 51.5213 28.5156 51.5213 28.2059V26.0244H49.9111V25.5684H54.5079ZM52.3798 26.0244V26.8689H53.0047V26.0244H52.3798Z" fill="#303849"/>
<path id="Vector_73" d="M60.0278 26.0244H58.4993C58.5752 26.0438 58.6462 26.0789 58.7077 26.1274C58.7693 26.1759 58.8201 26.2367 58.8568 26.3059C58.9436 26.4516 58.9902 26.6177 58.9919 26.7872C58.9949 26.9413 58.9528 27.093 58.8708 27.2235C58.7888 27.354 58.6704 27.4578 58.5303 27.5219C58.2507 27.6596 57.9439 27.7327 57.6323 27.7358C57.8027 27.7821 57.9543 27.8805 58.0658 28.0173C58.0799 28.037 58.1559 28.1693 58.2938 28.4114C58.5415 28.859 58.7836 29.0814 59.0172 29.0814C59.2531 29.0551 59.4791 28.972 59.6759 28.8393L59.4733 29.4924C59.2304 29.5768 58.9759 29.6223 58.7189 29.6275C58.5171 29.6287 58.3172 29.5883 58.1317 29.5089C57.9463 29.4294 57.7791 29.3127 57.6407 29.1658C57.4194 28.8983 57.2163 28.6161 57.0327 28.3213C56.8357 28.0117 56.648 27.8569 56.4697 27.8569H56.3487V27.1419C56.6093 27.2808 56.898 27.3588 57.1932 27.3699C57.3901 27.3791 57.5828 27.3115 57.7308 27.1813C57.7993 27.1142 57.8527 27.0333 57.8877 26.9441C57.9226 26.8548 57.9382 26.7591 57.9335 26.6634C57.9466 26.5324 57.9176 26.4007 57.8508 26.2873C57.784 26.174 57.6828 26.0848 57.5619 26.0328H56.2783V25.5684H60.0278V26.0244Z" fill="#303849"/>
<path id="Vector_74" d="M63.7583 26.928C63.6477 26.8546 63.5193 26.8127 63.3867 26.8069C63.2875 26.8074 63.1911 26.8397 63.1116 26.899C63.0321 26.9582 62.9736 27.0414 62.9448 27.1363C62.8695 27.322 62.834 27.5215 62.8406 27.7218C62.8341 27.9226 62.8776 28.1219 62.9673 28.3016C63.0029 28.3932 63.0657 28.4717 63.1472 28.5265C63.2287 28.5814 63.3251 28.61 63.4233 28.6085C63.5575 28.6074 63.6882 28.5651 63.7977 28.4874V26.0244H61.7541V25.5684H67.2713V26.0244H64.7857V26.5029C65.0153 26.357 65.2822 26.2807 65.5542 26.2833C65.7347 26.2764 65.9146 26.3074 66.0824 26.3743C66.2501 26.4412 66.402 26.5426 66.5282 26.6718C66.6546 26.8038 66.7526 26.9603 66.816 27.1318C66.8794 27.3032 66.907 27.4858 66.8969 27.6683C66.9038 27.8746 66.8653 28.0798 66.7841 28.2695C66.7028 28.4592 66.5809 28.6288 66.4268 28.7661C66.1534 29.0162 65.7952 29.153 65.4247 29.1489C65.3379 29.1485 65.2513 29.141 65.1657 29.1264L64.9687 28.4705C65.0144 28.5179 65.069 28.5556 65.1294 28.5817C65.1898 28.6078 65.2548 28.6217 65.3206 28.6225C65.4187 28.6203 65.5133 28.5857 65.5896 28.5241C65.666 28.4625 65.7198 28.3773 65.7428 28.2819C65.8101 28.102 65.8435 27.9111 65.8413 27.719C65.8413 27.1813 65.6358 26.9111 65.2389 26.9111C65.0792 26.914 64.9229 26.9587 64.7857 27.0406V29.3657H63.7977V29.0617C63.6411 29.1493 63.4607 29.1848 63.2826 29.163C62.8919 29.1818 62.5074 29.06 62.1988 28.8196C62.0495 28.6938 61.9315 28.535 61.8543 28.3556C61.7771 28.1763 61.7428 27.9814 61.7541 27.7865C61.7356 27.3971 61.8608 27.0144 62.1059 26.7112C62.2319 26.5708 62.388 26.4607 62.5625 26.389C62.7369 26.3174 62.9254 26.2861 63.1137 26.2974C63.2703 26.298 63.4263 26.3179 63.5781 26.3565L63.7583 26.928Z" fill="#303849"/>
<path id="Vector_75" d="M67.4065 29.3516V26.0244H67.125V25.5684H68.9097V26.0244H68.372V29.3516H67.4065Z" fill="#303849"/>
<path id="Vector_76" d="M73.379 25.5684V26.0244H72.8357V29.3516H71.8646V27.3812H71.2425C71.2711 27.789 71.2106 28.1982 71.0651 28.5803C70.9801 28.7643 70.8425 28.9189 70.6696 29.0246C70.4968 29.1303 70.2964 29.1824 70.094 29.1743C69.9273 29.1913 69.759 29.1752 69.5986 29.1269C69.4382 29.0786 69.2889 28.999 69.1594 28.8928C69.0403 28.7765 68.9479 28.6357 68.8886 28.4802C68.8293 28.3246 68.8046 28.1581 68.816 27.992C68.8036 27.6958 68.9042 27.406 69.0975 27.1813C69.1924 27.0727 69.3105 26.9868 69.443 26.9298C69.5755 26.8728 69.719 26.8462 69.8632 26.852C69.9531 26.8527 70.0428 26.8631 70.1306 26.8829L70.2967 27.3868C70.235 27.3574 70.1679 27.3411 70.0996 27.3389C70.0267 27.3394 69.9556 27.3612 69.895 27.4017C69.8345 27.4423 69.7872 27.4997 69.759 27.567C69.6902 27.6978 69.6563 27.8442 69.6605 27.992C69.6567 28.1425 69.6906 28.2915 69.759 28.4255C69.7845 28.4959 69.8307 28.5569 69.8914 28.6006C69.9522 28.6443 70.0248 28.6686 70.0996 28.6704C70.2826 28.6704 70.3811 28.5156 70.3811 28.2059V26.0244H68.7822V25.5684H73.379ZM71.2537 26.0244V26.8689H71.8758V26.0244H71.2537Z" fill="#303849"/>
<path id="Vector_77" d="M76.369 28.8365C76.4487 28.9276 76.5512 28.9959 76.6659 29.0345C76.7806 29.0731 76.9036 29.0805 77.0221 29.056L76.3156 29.8076L75.9806 29.5881C75.8768 29.4664 75.8155 29.3142 75.8061 29.1546C75.5806 29.1986 75.3517 29.2221 75.122 29.2249C74.6743 29.241 74.2344 29.104 73.875 28.8365C73.6934 28.6937 73.5511 28.5071 73.4614 28.2942C73.3718 28.0813 73.3378 27.8491 73.3625 27.6194C73.3873 27.3897 73.4701 27.1701 73.603 26.9812C73.736 26.7923 73.9149 26.6403 74.1227 26.5395C74.5723 26.3394 75.0652 26.2562 75.5555 26.2974V26.0159H73.2529V25.5684H77.2811V26.0244H76.5267V26.852C76.2736 26.8092 76.0176 26.7866 75.761 26.7844C75.4443 26.7747 75.1295 26.8373 74.8405 26.9674C74.6959 27.0272 74.5723 27.1288 74.4855 27.2591C74.3988 27.3895 74.3529 27.5427 74.3536 27.6993C74.3487 27.8301 74.3712 27.9606 74.4197 28.0823C74.4681 28.2039 74.5415 28.3141 74.6351 28.4058C74.7274 28.4976 74.8373 28.5699 74.9582 28.6183C75.0791 28.6666 75.2086 28.6901 75.3388 28.6873C75.3944 28.6869 75.45 28.6822 75.5049 28.6732C75.4426 28.6081 75.3939 28.5313 75.3615 28.4472C75.3291 28.3631 75.3137 28.2735 75.3163 28.1834C75.3133 28.0799 75.331 27.9768 75.3682 27.8802C75.4054 27.7836 75.4614 27.6953 75.533 27.6204C75.67 27.4878 75.8532 27.4137 76.0439 27.4137C76.2346 27.4137 76.4178 27.4878 76.5548 27.6204C76.6741 27.7528 76.7367 27.9266 76.7293 28.1046C76.7396 28.2476 76.7117 28.3907 76.6484 28.5194C76.585 28.648 76.4886 28.7574 76.369 28.8365Z" fill="#303849"/>
<path id="Vector_78" d="M77.4163 29.3516V26.0244H77.1348V25.5684H78.9194V26.0244H78.3818V29.3516H77.4163Z" fill="#303849"/>
<path id="Vector_79" d="M82.5388 26.0244H80.999C81.0749 26.0438 81.1459 26.0789 81.2075 26.1274C81.269 26.1759 81.3198 26.2367 81.3565 26.3059C81.4441 26.4513 81.4917 26.6174 81.4944 26.7872C81.4972 26.9417 81.4547 27.0935 81.3722 27.2241C81.2896 27.3546 81.1707 27.4582 81.03 27.5219C80.7504 27.6596 80.4436 27.7327 80.132 27.7358C80.3024 27.7821 80.454 27.8805 80.5655 28.0173C80.5824 28.037 80.6584 28.1693 80.7935 28.4114C81.044 28.859 81.2833 29.0814 81.5169 29.0814C81.7537 29.0552 81.9807 28.9721 82.1785 28.8393L81.973 29.4924C81.7311 29.5767 81.4775 29.6223 81.2214 29.6275C81.0192 29.6289 80.8188 29.5886 80.6328 29.5092C80.4469 29.4298 80.2793 29.3129 80.1405 29.1658C79.9191 28.8983 79.716 28.6161 79.5324 28.3213C79.3354 28.0117 79.1524 27.8569 78.9863 27.8569H78.8653V27.1419C79.1258 27.2812 79.4146 27.3592 79.7098 27.3699C79.9067 27.3791 80.0994 27.3115 80.2474 27.1813C80.3159 27.1142 80.3693 27.0333 80.4043 26.9441C80.4392 26.8548 80.4548 26.7591 80.4501 26.6634C80.4638 26.5327 80.4355 26.401 80.3692 26.2876C80.3028 26.1742 80.202 26.0849 80.0813 26.0328H78.7949V25.5684H82.5416L82.5388 26.0244Z" fill="#303849"/>
<path id="Vector_80" d="M84.6137 27.8822V26.0244H84.2646V25.5684H88.1239V26.0244H87.5919V29.3516H86.6742V28.828C86.4525 29.013 86.172 29.1128 85.8832 29.1095C85.5489 29.1198 85.224 28.9973 84.9796 28.7689C84.8585 28.6561 84.7631 28.5185 84.6999 28.3655C84.6368 28.2125 84.6074 28.0476 84.6137 27.8822ZM86.6742 28.1328V26.0244H85.5708V27.795C85.5708 28.2144 85.7594 28.4255 86.1338 28.4255C86.2438 28.442 86.3561 28.422 86.4537 28.3686C86.5513 28.3153 86.6287 28.2314 86.6742 28.1299V28.1328Z" fill="#303849"/>
<path id="Vector_81" d="M88.262 29.3516V26.0244H87.9805V25.5684H89.7651V26.0244H89.2247V29.3516H88.262Z" fill="#303849"/>
<path id="Vector_82" d="M92.7066 26.0244V26.7168H91.0177C90.985 26.7116 90.9515 26.7142 90.9199 26.7243C90.8884 26.7345 90.8596 26.7519 90.8361 26.7752C90.8125 26.7985 90.7947 26.827 90.7842 26.8584C90.7737 26.8899 90.7708 26.9233 90.7756 26.9561C90.7756 27.1137 90.8657 27.1954 91.0571 27.1954H91.9269C92.0437 27.1944 92.1595 27.2166 92.2677 27.2606C92.3759 27.3045 92.4744 27.3694 92.5575 27.4515C92.6444 27.5293 92.7143 27.6242 92.7627 27.7303C92.8112 27.8364 92.8371 27.9514 92.8389 28.068C92.8389 28.8093 92.2713 29.2071 91.1359 29.2615C91.0656 29.2615 91.105 29.2981 91.257 29.3516C91.409 29.4051 91.4878 29.4276 91.6004 29.4586C91.7609 29.503 91.9265 29.5267 92.093 29.529C92.2058 29.529 92.3182 29.5158 92.428 29.4895L91.5553 30.1961C91.2338 30.064 90.9398 29.8731 90.6884 29.6331C90.4328 29.3988 90.1293 29.223 89.7988 29.118L89.7763 28.2735C90.0959 28.5539 90.5027 28.715 90.9276 28.7295C91.1906 28.7277 91.4457 28.6397 91.6539 28.479C91.6989 28.4473 91.7356 28.4051 91.7606 28.3561C91.7856 28.307 91.7983 28.2526 91.7974 28.1975C91.7939 28.0719 91.7449 27.9518 91.6595 27.8597C91.625 27.8105 91.5796 27.77 91.5269 27.7412C91.4742 27.7124 91.4155 27.6961 91.3555 27.6936H90.7587C90.5359 27.7012 90.3152 27.6487 90.1197 27.5416C90.0222 27.4899 89.9412 27.4118 89.8859 27.3162C89.8307 27.2207 89.8034 27.1115 89.8073 27.0012C89.8073 26.5057 90.1413 26.258 90.8094 26.258H91.7974V26.0216H89.6553V25.5684H93.3625V26.0244H92.7066Z" fill="#303849"/>
<path id="Vector_83" d="M92.7287 25.5688H91.7576C91.6913 25.4926 91.6431 25.4023 91.6168 25.3048C91.5905 25.2072 91.5866 25.105 91.6056 25.0058C91.6059 24.9205 91.6231 24.8362 91.6562 24.7576C91.6893 24.679 91.7375 24.6077 91.7982 24.5478C91.8589 24.4879 91.9308 24.4406 92.0098 24.4086C92.0888 24.3765 92.1734 24.3604 92.2586 24.3612C92.5106 24.3312 92.766 24.3512 93.0102 24.4203L93.1172 24.9608C93.0243 24.8849 92.9103 24.8396 92.7907 24.8313C92.7352 24.8308 92.6814 24.8505 92.6395 24.8867C92.5975 24.923 92.5702 24.9734 92.5626 25.0283C92.5444 25.0925 92.534 25.1587 92.5317 25.2254C92.527 25.2956 92.5433 25.3657 92.5783 25.4268C92.6134 25.4879 92.6657 25.5373 92.7287 25.5688Z" fill="#303849"/>
<path id="Vector_84" d="M93.21 26.0244V25.5684H96.7286V26.0244H93.21ZM96.6582 27.1954C96.5125 27.064 96.3422 26.9628 96.1572 26.8976C95.9721 26.8324 95.776 26.8044 95.5801 26.8154C95.4574 26.8136 95.3348 26.824 95.2142 26.8463C95.4192 26.9066 95.5981 27.034 95.7221 27.208C95.8461 27.3821 95.9081 27.5927 95.8982 27.8062C95.8982 28.6695 95.4929 29.1114 94.6822 29.132C94.5042 29.1445 94.3256 29.1191 94.1582 29.0575C93.9908 28.9959 93.8384 28.8994 93.711 28.7746C93.5858 28.6467 93.488 28.4946 93.4236 28.3276C93.3592 28.1606 93.3296 27.9822 93.3366 27.8034C93.3258 27.4972 93.4194 27.1964 93.602 26.9504C93.7846 26.7044 94.0454 26.5277 94.3416 26.4494C94.6487 26.3402 94.9727 26.2858 95.2986 26.289C95.7724 26.2875 96.2393 26.4026 96.6582 26.624V27.1954ZM94.7582 27.2545L95.1691 26.9139C94.7075 26.9139 94.4682 27.2207 94.4485 27.8034C94.4423 27.9462 94.4683 28.0886 94.5245 28.22C94.5893 28.3917 94.6878 28.479 94.8201 28.479C95.0425 28.479 95.1466 28.2622 95.1325 27.8259C95.1185 27.3896 95.0368 27.232 94.8736 27.232C94.8341 27.2332 94.7952 27.2408 94.7582 27.2545Z" fill="#303849"/>
<path id="Vector_85" d="M96.3776 26.0235V25.5675H97.0447V25.8039C97.2737 25.635 97.7728 25.5562 98.5423 25.5675V26.1304C98.4437 26.0872 98.3374 26.0642 98.2298 26.0629C98.093 26.0643 97.9601 26.1086 97.8498 26.1896C97.7944 26.2221 97.7482 26.268 97.7152 26.3231C97.6822 26.3782 97.6637 26.4407 97.6612 26.5048C97.6612 26.7863 97.7991 26.9383 98.1088 26.9383C98.2305 26.9408 98.3507 26.9117 98.4578 26.8539V27.445C98.3579 27.4151 98.2524 27.4087 98.1496 27.4262C98.0467 27.4437 97.9493 27.4847 97.8649 27.5459C97.7805 27.6072 97.7113 27.6871 97.6628 27.7795C97.6143 27.8718 97.5877 27.9741 97.5852 28.0784C97.5852 28.5344 97.861 28.7624 98.4128 28.7624C98.9504 28.7624 99.2572 28.6864 99.3389 28.5344C99.2314 28.5041 99.1317 28.451 99.0467 28.3786C98.9616 28.3062 98.8933 28.2163 98.8463 28.115C98.7433 27.9159 98.6911 27.6945 98.6943 27.4703C98.688 27.2148 98.7597 26.9635 98.8997 26.7497C99.0381 26.5444 99.2495 26.3994 99.4909 26.3444V26.0235H98.8378V25.5675H101.746V26.0235H100.482V26.35C100.597 26.3827 100.705 26.4387 100.798 26.5148C100.891 26.5908 100.967 26.6852 101.022 26.792C101.137 27.0065 101.195 27.2468 101.191 27.4901C101.195 27.7433 101.128 27.9926 101 28.2107C100.872 28.4337 100.674 28.608 100.437 28.7061C100.6 28.8089 100.79 28.8591 100.983 28.8497C101.162 28.8468 101.34 28.827 101.515 28.7905L101 29.5872C100.781 29.5737 100.566 29.5171 100.369 29.4205C100.172 29.3238 99.996 29.1892 99.8512 29.0242C99.6261 29.1473 99.3778 29.2221 99.1221 29.2437C98.8636 29.2885 98.6019 29.312 98.3396 29.3141C97.9099 29.325 97.4826 29.2474 97.0841 29.0861C96.8801 29.0228 96.7011 28.8968 96.5728 28.726C96.4444 28.5552 96.3732 28.3483 96.3691 28.1347C96.3743 28.0211 96.4019 27.9097 96.4502 27.8068C96.4985 27.704 96.5666 27.6116 96.6506 27.5351C96.721 27.4498 96.8111 27.383 96.9131 27.3403C97.0151 27.2976 97.126 27.2804 97.2361 27.2902C97.1391 27.2968 97.0417 27.2837 96.9498 27.2518C96.8579 27.2199 96.7734 27.1697 96.7013 27.1044C96.631 27.0378 96.576 26.9568 96.54 26.8669C96.5041 26.777 96.488 26.6803 96.493 26.5836C96.4917 26.4789 96.5117 26.3749 96.5518 26.2781C96.592 26.1813 96.6515 26.0937 96.7266 26.0207L96.3776 26.0235ZM99.9891 26.868C99.8934 26.868 99.823 26.9806 99.7752 27.2086C99.7409 27.3563 99.723 27.5073 99.7217 27.6589C99.7217 28.0981 99.8146 28.3092 100.003 28.2895C100.138 28.2895 100.206 28.0812 100.206 27.6646C100.206 27.5174 100.194 27.3706 100.169 27.2254C100.124 26.9777 100.065 26.8595 99.9891 26.8595V26.868Z" fill="#303849"/>
<path id="Vector_86" d="M104.535 29.3516V25.5684H105.38V29.3516H104.535Z" fill="#303849"/>
</g>
<defs>
<clipPath id="clip0_8148_97352">
<rect width="106.035" height="32" fill="white"/>
</clipPath>
</defs>
</svg>
