<svg width="121" height="121" viewBox="0 0 121 121" fill="none" xmlns="http://www.w3.org/2000/svg">
<g id="Frame 584" clip-path="url(#clip0_1274_4588)">
<g id="Group 229">
<path id="Vector" d="M40.2646 38.6763C40.2646 38.6763 48.6509 25.0444 53.9455 22.2979L68.6955 34.9722L69.2237 35.9172L67.4588 38.1093L67.665 39.596L70.2414 49.0451C70.2414 49.0451 73.0111 63.4455 68.6569 67.0866L68.5023 67.2C63.942 70.6394 65.6038 69.6567 65.6038 69.6567L62.0741 75.1498L59.1627 75.8805L51.0985 70.5764L50.5832 65.4235L45.8297 64.466L42.9441 61.4801L40.5609 57.4989L44.3225 57.2217L41.7461 47.5584L39.3242 42.6953L40.2646 38.6763Z" fill="white"/>
<path id="Vector_2" d="M40.5896 110.413L33.4014 101.418C32.7959 101.292 28.2485 103.673 26.9603 104.946C26.0843 105.894 25.3709 106.975 24.8477 108.146L27.875 107.478L26.2776 109.998L29.0601 109.229L27.7719 111.472L30.6575 110.993L29.3693 113.286L31.7267 112.379L30.4385 114.899L33.2597 113.966L31.9715 116.486C35.2822 116.297 40.5896 110.413 40.5896 110.413Z" fill="#303849"/>
<path id="Vector_3" d="M34.1567 39.5949C36.5785 36.7602 31.3613 32.3506 30.0859 36.1177C30.1761 38.524 31.825 39.3933 34.1567 39.5949Z" fill="white"/>
<path id="Vector_4" d="M33.6435 40.5901C30.9125 40.7791 30.5646 38.6373 28.555 38.0703C28.5164 40.9428 31.8528 42.4547 33.6435 40.5901Z" fill="white"/>
<path id="Vector_5" d="M45.3434 44.0806C42.4965 44.3704 42.8958 41.5609 40.7702 41.0947C39.8814 42.8586 42.1486 45.2145 42.7927 47.0666C44.4288 46.8272 44.5447 45.1263 45.3434 44.0806Z" fill="white"/>
<path id="Vector_6" d="M28.0531 45.0758C27.2416 45.4412 28.1691 47.5074 26.533 47.0664C26.1208 44.3325 28.2206 44.0805 28.0531 41.586C26.4558 41.3466 26.2625 42.4931 24.4977 42.0899C21.1097 45.6428 18.0566 53.8572 21.4446 59.4888C21.071 55.999 20.6459 53.3028 23.48 52.0304C23.6955 52.3608 23.9986 52.6278 24.357 52.8031C24.7155 52.9783 25.1158 53.0553 25.5154 53.0257C25.8245 49.687 28.3752 48.5279 30.0885 46.5625C28.0918 47.3436 29.0322 45.2774 28.0531 45.0758Z" fill="white"/>
<path id="Vector_7" d="M77.8679 56.5032C78.2801 51.9173 76.4895 45.1643 82.4539 46.0714C83.3685 47.3789 83.733 48.9806 83.4716 50.544C89.552 47.9109 78.7696 42.1154 76.8631 47.0668C77.3784 50.0401 75.7423 55.1174 77.8679 56.5032Z" fill="white"/>
<path id="Vector_8" d="M57.5414 47.5572C57.5368 47.1358 57.3779 46.7299 57.0938 46.4131C56.8096 46.0963 56.4188 45.8895 55.9922 45.8301C55.5656 45.7707 55.1313 45.8627 54.768 46.0894C54.4047 46.316 54.1364 46.6624 54.0117 47.0658C55.6349 46.7761 56.3563 47.406 57.5414 47.5572Z" fill="#303849"/>
<path id="Vector_9" d="M96.689 47.5572C95.6198 47.1414 94.7052 45.5162 93.6359 46.5619C93.3268 48.3257 96.2768 49.447 96.689 47.5572Z" fill="white"/>
<path id="Vector_10" d="M45.3399 47.0664C44.6958 47.9609 42.6217 50.3295 44.8246 51.035C44.6442 49.6492 46.7698 48.0113 45.3399 47.0664Z" fill="white"/>
<path id="Vector_11" d="M46.8733 47.5576C45.9458 50.3042 45.2244 53.2523 44.2969 56.0114C45.3536 54.8855 46.1346 53.5394 46.581 52.0748C47.0273 50.6102 47.1273 49.0656 46.8733 47.5576Z" fill="white"/>
<path id="Vector_12" d="M56.5869 50.5435V48.5025C56.4571 48.3563 56.2979 48.2378 56.1192 48.1543C55.9405 48.0709 55.7461 48.0243 55.5482 48.0175C55.3503 48.0107 55.1531 48.0438 54.9689 48.1147C54.7846 48.1857 54.6173 48.293 54.4773 48.4299C54.3373 48.5668 54.2276 48.7305 54.155 48.9107C54.0825 49.0909 54.0486 49.2838 54.0556 49.4773C54.0625 49.6708 54.1102 49.8609 54.1955 50.0357C54.2808 50.2104 54.402 50.3661 54.5515 50.4931L56.5869 50.5435Z" fill="#303849"/>
<path id="Vector_13" d="M68.1805 45.6814C68.2051 45.2415 68.0604 44.8085 67.775 44.4676C67.4896 44.1268 67.0841 43.9027 66.6383 43.8395C66.1925 43.7763 65.7387 43.8786 65.3661 44.1262C64.9935 44.3738 64.7291 44.7488 64.625 45.1774C66.2482 44.8876 66.9567 45.5176 68.1805 45.6814Z" fill="#303849"/>
<path id="Vector_14" d="M65.6059 48.6667H67.6671V46.6635C67.3954 46.3962 67.0264 46.2453 66.641 46.2441C66.2557 46.243 65.8857 46.3915 65.6124 46.6572C65.339 46.9228 65.1848 47.2838 65.1836 47.6606C65.1824 48.0375 65.3343 48.3994 65.6059 48.6667Z" fill="#303849"/>
<path id="Vector_15" d="M47.8791 75.9051C42.2859 67.4197 36.1594 59.282 29.5349 51.5391C27.1389 55.2179 33.6057 61.7063 36.1435 65.9521C39.0806 70.8656 41.2964 75.3508 43.7697 78.3871C46.0112 78.3871 45.6892 75.9177 47.8791 75.9051Z" fill="white"/>
<path id="Vector_16" d="M76.8624 85.8456C84.6561 79.5462 82.2214 63.2433 84.9911 52.0304C83.0974 53.0131 81.3969 51.8414 79.4002 51.5391C80.2247 64.289 76.2441 74.9602 76.8624 85.8456Z" fill="white"/>
<path id="Vector_17" d="M90.0802 55.52C91.9481 55.3436 92.4119 53.8066 93.1333 52.5341C91.5874 50.5309 89.0883 52.1939 89.0625 54.5247C89.6422 54.6255 89.8612 55.0665 90.0802 55.52Z" fill="white"/>
<path id="Vector_18" d="M57.0377 56.1632C55.479 56.768 61.3146 61.2027 66.6994 58.683C67.7774 58.1972 68.7553 57.5225 69.585 56.6924C70.023 55.3443 68.6961 56.327 66.9184 57.6877C65.1793 58.7712 59.3694 58.3554 57.0377 56.1632Z" fill="#303849"/>
<path id="Vector_19" d="M111.981 57.4983C112.003 57.2333 111.965 56.9668 111.871 56.7174C111.777 56.4679 111.629 56.2414 111.436 56.0534C111.244 55.8654 111.012 55.7204 110.757 55.6284C110.502 55.5363 110.23 55.4995 109.959 55.5203C109.938 55.7854 109.975 56.0518 110.069 56.3013C110.163 56.5507 110.312 56.7772 110.504 56.9652C110.696 57.1532 110.928 57.2983 111.183 57.3903C111.438 57.4823 111.71 57.5192 111.981 57.4983Z" fill="white"/>
<path id="Vector_20" d="M89.0651 56.0615C87.1457 56.5151 84.7496 59.1104 86.012 61.038C86.4371 58.7451 88.64 58.2411 89.0651 56.0615Z" fill="white"/>
<path id="Vector_21" d="M104.316 64.4652C107.357 63.2809 108.323 60.0934 110.423 58.002C107.795 57.4225 104.445 62.6006 104.316 64.4652Z" fill="white"/>
<path id="Vector_22" d="M43.3047 58.9974C43.9101 61.2274 47.3368 60.6856 49.4108 61.5171C49.1661 59.073 45.2241 58.1658 43.3047 58.9974Z" fill="#303849"/>
<path id="Vector_23" d="M90.0821 71.4327C89.2319 73.2973 92.4396 73.6879 91.0998 74.406C89.7086 74.7714 90.0821 73.4233 89.0644 73.4233C88.7166 75.3887 86.488 75.5903 86.0114 77.3919C86.5782 77.7321 88.5878 79.0424 87.5444 79.3825C86.8745 79.4581 86.0114 77.3667 85.4961 78.8912C87.0935 79.3195 87.1708 81.2345 88.562 81.8645C91.6538 78.0848 94.3977 73.9902 98.2237 70.9287C102.385 73.3225 106.198 76.0564 110.925 77.8959C111.518 76.636 112.948 76.2328 112.961 74.406C109.715 73.9272 109.611 69.1145 106.352 71.4327C106.571 70.4752 107.447 70.1728 107.37 68.9129C106.648 68.7006 105.992 68.3168 105.459 67.7957C104.926 67.2747 104.534 66.6326 104.317 65.927C102.436 66.0782 102.939 68.5602 100.761 68.4468C100.877 66.5695 102.668 66.3302 102.797 64.4655C101.509 63.0167 100.414 61.4922 98.2237 60.9883C97.7599 62.034 96.6778 62.4497 96.6907 63.9616C97.0127 65.3097 98.8162 65.2215 98.7261 66.9475C97.4378 66.3806 97.0256 64.9695 95.1835 64.9695C95.454 66.7207 93.3671 66.2294 93.6376 67.9428C93.0579 69.4043 96.0852 69.7948 94.6553 70.4626C93.7536 70.009 93.1739 69.2027 92.0789 68.9633C91.8341 70.1476 91.6795 71.4957 90.0821 71.4327Z" fill="white"/>
<path id="Vector_24" d="M91.0983 67.9427C90.2996 64.5788 86.4092 64.2512 84.9922 61.4795C85.1597 65.4607 89.0243 65.8261 91.0983 67.9427Z" fill="white"/>
<path id="Vector_25" d="M47.3777 69.921C48.0218 68.7367 49.2327 68.0942 48.8978 65.9398C47.4667 65.6659 46.0914 65.1637 44.827 64.4531C43.0364 66.7713 44.8399 69.2029 47.3777 69.921Z" fill="white"/>
<path id="Vector_26" d="M64.1644 65.4602C63.8423 67.2871 68.5185 66.7201 67.7198 64.9689C66.058 64.6791 65.3495 65.2964 64.1644 65.4602Z" fill="#303849"/>
<path id="Vector_27" d="M84.4898 75.905C86.0614 73.3096 88.5992 71.6214 89.6427 68.4465C87.6331 67.9174 87.0663 65.9268 84.4898 65.9268C85.1468 69.593 82.9311 73.0451 84.4898 75.905Z" fill="white"/>
<path id="Vector_28" d="M67.7189 82.3685C64.8461 82.2173 63.1972 83.2504 60.0926 82.8599C59.0363 91.5278 65.9926 92.3468 68.7237 97.2855C69.3678 94.4886 71.4804 95.0933 73.8765 94.7657C72.312 85.9511 69.9319 77.2938 66.7656 68.9004C66.714 73.7005 67.4741 77.7825 67.7189 82.3685Z" fill="white"/>
<path id="Vector_29" d="M49.9164 71.4327C49.2078 73.6501 50.7795 76.1824 52.4928 74.406C51.3205 73.7005 52.0419 71.1807 49.9164 71.4327Z" fill="white"/>
<path id="Vector_30" d="M94.6563 77.3915C95.1845 75.8923 98.2504 74.3048 97.2327 72.9189C96.6788 74.4056 93.6129 76.0056 94.6563 77.3915Z" fill="white"/>
<path id="Vector_31" d="M58.056 85.354C58.4553 83.3004 57.2702 82.8343 57.5407 80.8688C55.8145 79.7349 52.3879 80.2389 52.4651 77.3916C54.4361 77.0136 55.0416 79.231 56.523 77.8955C56.6647 76.7616 56.3942 76.0183 55.5053 75.9049C48.33 75.4892 45.264 79.9491 41.7858 84.3587C34.1039 84.1056 26.4542 83.2631 18.9071 81.8389C20.9812 80.7303 24.2532 80.7806 27.5382 80.8436C28.0406 77.442 24.2532 78.1097 22.4626 78.3239C17.9667 78.9412 10.9717 83.6658 10.7656 87.773C20.015 96.1512 35.4865 83.9933 43.8083 87.269C47.8405 86.1729 52.594 83.5146 58.056 85.354Z" fill="white"/>
<path id="Vector_32" d="M79.9156 87.8364C81.7964 86.5765 84.901 83.7796 82.9558 80.3779C79.6193 84.7119 71.0526 94.0602 78.3826 98.7722C77.2876 98.3564 77.571 96.5926 76.8625 95.7989C79.2843 94.5138 80.3922 91.9562 79.9156 87.8364Z" fill="white"/>
<path id="Vector_33" d="M86.5244 82.3674C85.5583 82.3674 86.1766 80.717 84.9915 80.8682C85.2878 85.6431 82.312 87.1676 80.9336 90.3173C84.605 89.448 86.2153 86.525 86.5244 82.3674Z" fill="white"/>
<path id="Vector_34" d="M58.5595 98.7718C59.2551 96.6426 60.0925 94.6394 62.6303 94.2992C60.0538 90.6834 57.2713 85.2155 50.418 87.3321C52.9944 91.3385 54.7593 96.0253 58.5595 98.7718Z" fill="white"/>
<path id="Vector_35" d="M50.9337 94.8029V96.7809C51.34 96.6075 51.7785 96.518 52.2219 96.518C52.6652 96.518 53.1038 96.6075 53.5101 96.7809C52.0673 93.5556 50.9337 90.0532 47.9192 88.3271C48.164 91.9556 46.8371 93.4549 47.9192 95.7982C49.362 95.9242 49.4393 94.6643 50.9337 94.8029Z" fill="white"/>
<path id="Vector_36" d="M88.5608 93.8587C90.8538 92.3972 88.6252 87.4081 85.9844 89.3861C87.2984 91.4901 86.8088 92.5988 88.5608 93.8587Z" fill="white"/>
<path id="Vector_37" d="M81.9526 96.781C82.6096 95.3447 82.3648 93.9211 80.9349 93.3037C81.0637 94.7148 80.484 96.718 81.9526 96.781Z" fill="white"/>
<path id="Vector_38" d="M56.021 100.271C54.1144 100.787 55.0162 98.5952 53.9856 98.2803C53.8697 102.589 48.0083 98.2803 46.3594 100.8V107.717H54.488C55.0806 103.383 53.5991 102.173 56.021 100.271Z" fill="white"/>
<path id="Vector_39" d="M66.1835 98.7716C64.3156 100.951 63.0274 103.61 59.575 104.24C58.4671 104.139 56.8311 101.997 56.0195 103.257C57.166 103.773 56.1999 106.381 56.5219 107.717C63.6329 107.389 70.5849 106.898 77.3781 106.243C77.2364 103.055 75.639 101.304 75.3299 98.2803C72.4572 98.5952 68.541 99.4772 66.1835 98.7716ZM69.739 106.243C67.008 105.903 67.7294 101.934 68.2189 99.7669C70.0095 100.51 69.958 105.197 69.739 106.243Z" fill="white"/>
<path id="Vector_40" d="M79.4001 98.2806C79.1554 99.9185 82.3373 100.372 82.4532 98.772C81.5309 98.2493 80.445 98.0745 79.4001 98.2806Z" fill="white"/>
<path id="Vector_41" d="M98.224 100.27C98.3657 99.0106 97.5155 98.6326 96.1758 98.7712C95.7635 100.548 97.2579 101.241 98.224 100.27Z" fill="#303849"/>
<path id="Vector_42" d="M69.7412 106.242C69.9602 105.134 70.0117 100.51 68.2211 99.7666C67.7316 101.934 67.0102 105.902 69.7412 106.242Z" fill="#303849"/>
<path id="Vector_43" d="M92.1148 102.262V100.271H90.0794C89.68 101.985 90.3628 102.678 92.1148 102.262Z" fill="#303849"/>
<path id="Vector_44" d="M87.0291 101.758H86.0114C86.0114 102.06 85.9341 102.35 85.4961 102.262V103.257C85.8181 103.257 86.1144 103.333 86.0114 103.748H87.0291C87.0291 103.446 87.1064 103.156 87.5444 103.257V102.262C87.2352 102.224 86.9389 102.174 87.0291 101.758Z" fill="#303849"/>
<path id="Vector_45" d="M95.6702 102.753C94.382 107.616 87.8379 104.34 85.4933 108.221C84.2051 108.611 82.6077 105.361 82.4531 107.717C95.2065 119.459 107.122 132.007 121.1 142.54C122.658 141.734 124.281 141.003 124.668 139.05C117.454 127.871 110.154 116.767 102.768 105.739C99.2128 105.915 98.1307 103.673 95.6702 102.753Z" fill="white"/>
<path id="Vector_46" d="M74.8412 112.202C75.2921 110.501 78.2034 111.194 77.8685 108.725C67.8007 110.406 57.5833 111.073 47.3764 110.715C42.9321 115.276 38.0884 119.534 34.6875 125.128C39.003 130.861 44.1172 135.799 46.8998 143.031C49.7983 143.56 50.9319 142.338 52.993 142.036C53.985 144.883 56.2522 146.471 59.0992 147.504C58.4538 139.59 56.3868 131.849 52.993 124.637C55.0284 124.284 54.2813 126.728 56.0461 126.627C60.1555 122.684 62.4872 116.989 67.2278 113.701C67.5885 115.856 65.7593 115.906 65.6949 117.67C70.1005 120.668 76.168 122.016 78.4095 127.119C76.4772 127.484 74.7768 125.078 73.334 126.627C74.0296 127.887 76.1809 129.424 74.8669 131.1C72.6383 130.924 71.9942 127.194 69.7141 128.58C70.1521 131.969 72.7672 133.217 74.8669 135.043C77.7912 130.458 82.0681 127.169 85.5205 123.1C84.9021 121.235 81.9779 121.626 79.9425 121.109C78.3709 118.01 76.0392 115.654 74.8412 112.202Z" fill="white"/>
<path id="Vector_47" d="M83.4743 119.661C81.7739 116.688 80.8979 112.832 77.8706 111.207C76.299 113.891 79.4809 119.258 83.4743 119.661Z" fill="white"/>
<path id="Vector_48" d="M107.872 56.5029C107.164 58.7959 103.48 60.8117 103.814 62.4748C104.858 60.4968 108.504 58.4683 107.872 56.5029Z" fill="white"/>
<path id="Vector_49" d="M85.4968 93.8585C85.4968 94.8412 84.1184 94.4884 84.492 95.8491C86.0893 96.4034 85.6385 95.8491 87.545 95.8491C86.6427 93.8614 85.2427 92.1281 83.4743 90.8096C81.7352 92.6742 84.3245 93.2915 85.4968 93.8585Z" fill="white"/>
<path id="Vector_50" d="M99.2401 95.2945C98.2793 94.5449 97.2534 93.8789 96.1741 93.3039C95.7877 91.2629 96.9599 90.7842 96.6894 88.8314C93.4431 88.0376 92.3224 85.1399 92.1162 81.3729C90.0937 79.7602 90.9182 84.2328 88.5608 83.8926C90.9955 79.3319 97.3078 78.5381 100.258 74.4435C103.636 75.9913 106.868 77.8251 109.919 79.924C112.431 79.2311 113.153 76.7869 114.48 74.9475C112.29 71.7852 108.631 70.0718 106.853 66.4937C108.837 62.9534 112.38 60.9502 113.977 57.0446C112.777 55.5208 111.204 54.3164 109.404 53.5421C106.737 56.2509 104.818 59.6525 101.778 61.9959C99.9357 61.6306 100.322 59.0982 98.2224 59.01C95.2852 60.6227 94.3577 64.1881 91.6138 65.9645C90.171 64.3771 87.4915 64.0243 87.0278 61.492C90.2097 58.5817 92.58 54.9784 97.2047 53.5421C97.7451 54.1877 98.4616 54.67 99.2711 54.9332C100.081 55.1963 100.95 55.2295 101.778 55.0288C105.823 47.3687 96.3931 41.0315 88.0455 40.6032C84.3097 43.4631 88.4577 46.5624 90.0809 48.5026C88.7154 51.1484 88.0584 54.487 86.0101 56.4525C89.1662 47.7719 82.6479 40.8048 77.3791 44.5214C71.4275 48.7168 79.3629 65.2716 74.8026 72.3773C72.3977 71.4302 70.2881 69.8839 68.6836 67.8922C74.4548 61.2904 70.5386 47.8349 68.1168 39.0661C66.236 38.5874 70.5 36.7101 69.8172 35.0723C68.529 32.6785 64.5742 30.2344 61.0316 27.6642C57.927 25.4342 55.1573 23.116 54.7966 20.6719C50.4038 21.6798 38.7197 36.1306 38.2044 42.0898C37.702 47.7215 43.7695 51.3247 42.7647 56.5028C41.9789 57.4478 40.7937 55.7973 39.7245 57.0068C38.8872 59.6651 42.5715 60.4967 40.7422 62.4747C36.1304 58.0273 32.0081 53.1138 31.0806 45.0757C32.1627 42.9843 35.0741 42.682 36.1562 40.5906C38.0756 29.6422 24.0856 33.0313 26.5074 40.5906C15.184 42.0142 16.7685 60.7486 23.4544 65.9519C26.0952 65.9519 25.3996 63.8857 26.0308 62.9786C26.4301 64.5031 27.0485 64.5661 28.6072 63.9613C30.5395 61.555 25.6572 59.388 27.5895 57.0068C32.2271 60.2699 34.1337 66.1913 36.7487 71.4324C35.0741 71.2434 35.7182 68.7867 33.6957 68.9127C30.8874 70.1725 27.2546 70.5757 24.5493 71.8986C24.0341 73.8388 25.6701 74.7837 24.5493 75.8798C17.1679 77.6184 10.9844 80.5288 9.29688 87.8109C15.9698 97.4363 31.0162 91.5905 42.3396 89.8015C45.3283 92.9386 42.9193 95.0804 42.3396 97.2599C43.0095 97.4993 44.5296 96.9072 44.7872 97.5497C43.1993 98.6843 41.6769 99.9041 40.2269 101.203L38.3719 99.5277C38.3719 99.5277 37.2383 98.482 34.3784 100.321L41.747 109.821L43.6793 108.334C43.7896 108.182 43.8805 108.017 43.9499 107.843C43.9177 109.021 44.2403 110.182 44.8774 111.182C40.8968 114.961 36.6457 118.413 33.2834 122.798C28.1306 118.602 15.8539 119.9 15.4417 127.321C15.4417 128.404 15.9827 129.261 15.622 130.71C15.7508 131.189 16.6268 130.911 16.5366 131.604C17.2323 136.997 17.8249 142.502 18.353 147.983H32.7682C32.8712 146.622 33.0387 145.324 33.1675 143.989C33.8245 146.231 35.7439 148.625 36.1819 150.918C26.5718 152.178 15.3128 151.712 9.74775 156.89C21.0583 159.889 36.8003 162.874 50.4167 160.367C53.6759 161.526 56.394 165.23 61.096 163.353C61.9007 161.924 62.4053 160.352 62.5801 158.729C62.7548 157.106 62.5963 155.466 62.1137 153.904C69.4823 152.027 76.6834 154.433 81.9522 151.914C80.9474 148.587 78.3452 146.874 76.7994 143.964C76.6061 142.112 78.8605 142.704 78.3195 140.486C77.0312 139.138 73.7849 139.617 73.7463 136.997C77.6109 134.225 86.5512 127.069 86.9634 123.075C87.7234 115.881 76.9668 111.597 78.8347 103.194C79.4788 103.874 81.2308 103.496 81.8878 104.177C81.6559 105.613 80.0843 105.739 80.3548 107.654C94.3062 119.711 106.969 133.028 121.578 144.455C130.119 140.512 123.188 133.733 119.542 128.077C112.663 117.33 104.097 104.92 99.2401 95.2945ZM91.0986 85.3541C91.601 87.1809 93.3272 87.8739 94.1516 89.3353C94.0228 96.7434 100.142 98.0537 101.778 103.748C96.2128 98.8978 89.8619 103.937 83.9876 105.739C82.9957 103.874 85.147 103.118 83.4723 101.266C92.0647 101.871 93.778 90.6834 88.0455 86.8408C89.3723 86.6392 89.5785 85.3541 91.0986 85.3541ZM80.9345 90.318C82.3129 87.2061 85.2887 85.6439 84.9924 80.8689C86.1776 80.7177 85.5592 82.3178 86.5254 82.3682C86.2162 86.5258 84.6059 89.4487 80.9345 90.318ZM81.9522 96.7812C80.4837 96.7812 81.0118 94.715 80.9345 93.3039C82.3516 93.9213 82.6092 95.3449 81.9522 96.7812ZM79.3758 51.5389C81.3725 51.8413 83.073 53.013 84.9666 52.0303C82.197 63.2432 84.6317 79.546 76.838 85.8454C76.2454 74.9601 80.226 64.2889 79.4016 51.5389H79.3758ZM84.5287 65.9519C87.1051 65.9519 87.6075 67.9174 89.6815 68.4717C88.7025 71.6466 86.1647 73.3348 84.5287 75.9302C82.9313 73.0451 85.147 69.593 84.49 65.9519H84.5287ZM88.5608 93.8583C86.8088 92.5984 87.2726 91.5401 85.9843 89.3857C88.6252 87.3573 90.8538 92.3464 88.5608 93.8583ZM83.4723 90.8724C85.2407 92.1909 86.6408 93.9241 87.5431 95.9119C85.6365 95.9119 86.0874 96.4662 84.49 95.9119C84.1164 94.5512 85.4948 94.904 85.4948 93.9213C84.3225 93.2913 81.7332 92.674 83.4723 90.822V90.8724ZM94.654 77.4421C93.6106 76.0562 96.6765 74.4561 97.2305 72.9695C98.2482 74.3049 95.2337 75.8924 94.654 77.3917V77.4421ZM111.981 57.4982C111.71 57.519 111.437 57.4821 111.182 57.3901C110.927 57.2981 110.695 57.1531 110.503 56.9651C110.311 56.7771 110.163 56.5505 110.068 56.3011C109.974 56.0516 109.937 55.7852 109.958 55.5201C110.229 55.4993 110.501 55.5362 110.757 55.6282C111.012 55.7202 111.243 55.8652 111.435 56.0532C111.628 56.2412 111.776 56.4678 111.87 56.7172C111.964 56.9667 112.002 57.2331 111.981 57.4982ZM110.46 58.0021C108.361 60.0935 107.394 63.281 104.354 64.4653C104.444 62.6007 107.794 57.4226 110.422 58.0021H110.46ZM107.884 56.5028C108.515 58.4683 104.87 60.4967 103.826 62.4747C103.478 60.8116 107.163 58.7958 107.871 56.5028H107.884ZM92.1162 68.9379C93.1726 69.2276 93.7523 69.9836 94.6927 70.4371C96.1226 69.7946 93.0953 69.404 93.675 67.9174C93.4045 66.1661 95.4914 66.6575 95.2208 64.944C97.063 64.944 97.4881 66.3551 98.7634 66.9221C98.8536 65.1834 97.0501 65.2842 96.7281 63.9361C96.7281 62.4243 97.7973 62.0085 98.261 60.9628C100.451 61.4668 101.598 62.9912 102.834 64.4401C102.705 66.3047 100.915 66.5441 100.799 68.4213C102.976 68.5599 102.473 66.0779 104.354 65.9016C104.571 66.6072 104.964 67.2492 105.497 67.7703C106.029 68.2913 106.686 68.6752 107.407 68.8875C107.485 70.1473 106.609 70.4245 106.39 71.4072C109.649 69.089 109.752 73.927 112.998 74.3805C112.998 76.2074 111.555 76.6231 110.963 77.8704C106.235 76.031 102.422 73.297 98.261 70.9033C94.3964 73.9648 91.6911 78.072 88.5994 81.839C87.2081 81.2091 87.1309 79.3193 85.5335 78.8657C86.0488 77.3413 86.9118 79.4327 87.5817 79.3571C88.6896 79.0169 86.6156 77.7066 86.0488 77.3665C86.5769 75.5648 88.754 75.3632 89.1018 73.3978C90.1195 73.3978 89.7459 74.7459 91.1372 74.3805C92.4254 73.6624 89.2693 73.2718 90.1195 71.4072C91.6782 71.4954 91.8328 70.1473 92.1162 68.9379ZM96.6894 47.5199C96.2772 49.4097 93.3272 48.2884 93.6363 46.5246C94.7056 45.5167 95.6202 47.1419 96.6894 47.5577V47.5199ZM93.1339 52.5594C92.4125 53.8193 91.9488 55.369 90.0809 55.5453C89.8619 55.0918 89.6429 54.6508 89.0632 54.55C89.0889 52.1941 91.5881 50.531 93.1339 52.5342V52.5594ZM89.0632 56.0619C88.6381 58.2919 86.4867 58.7958 86.0101 61.0384C84.7476 59.0604 87.1437 56.4651 89.0632 56.0619ZM91.0986 67.993C89.0245 65.8764 85.1599 65.4732 84.9924 61.5298C86.4095 64.2511 90.2999 64.5787 91.0986 67.9426V67.993ZM76.8638 47.0664C78.7703 42.115 89.5527 47.9105 83.4723 50.5436C83.7337 48.9802 83.3692 47.3785 82.4546 46.071C76.4902 45.2143 78.2808 51.9169 77.8686 56.5028C75.743 55.117 77.3791 50.0397 76.8638 47.0664ZM75.3308 98.2805C75.64 101.304 77.2374 103.055 77.3791 106.243C70.5945 106.898 63.6639 107.389 56.5873 107.717C56.2652 106.381 57.2314 103.774 56.0849 103.257C56.8964 101.997 58.5325 104.139 59.6403 104.24C63.067 103.61 64.4196 100.951 66.2489 98.7718C68.5419 99.4773 72.4581 98.5954 75.3308 98.2805ZM54.4875 107.717H46.3588V100.762C48.0077 98.2427 53.8691 102.589 53.9851 98.2427C55.0156 98.5576 54.1139 100.762 56.0204 100.233C53.5986 102.173 55.08 103.383 54.4875 107.717ZM50.4167 87.3321C57.27 85.2155 60.0397 90.6834 62.629 94.2992C60.0526 94.6394 59.2539 96.6426 58.5582 98.7718C54.758 96.0253 52.9931 91.3385 50.4167 87.3321ZM73.8107 94.8032C71.479 95.093 69.3664 94.4882 68.6578 97.323C65.9268 92.3842 58.9705 91.5653 60.0268 82.8973C63.1314 83.2879 64.7803 82.2548 67.653 82.406C67.4083 77.82 66.6482 73.7632 66.6353 68.9757C69.8213 77.3548 72.2229 85.9994 73.8107 94.8032ZM66.5967 35.5888L47.2735 29.9698C47.4667 29.7178 47.6599 29.491 47.866 29.2517L68.1812 35.1857L68.645 35.5511C68.0266 35.5511 67.3181 35.5763 66.5967 35.614V35.5888ZM46.8741 47.5577C47.1281 49.0656 47.0281 50.6103 46.5818 52.0749C46.1354 53.5395 45.3544 54.8856 44.2977 56.0115C45.2252 53.2524 45.9466 50.3042 46.8741 47.5577ZM45.3411 47.0664C46.7711 48.0113 44.6455 49.6491 44.8259 51.035C42.623 50.3294 44.697 47.9609 45.3411 47.0664ZM47.2735 41.0945C46.8664 41.4337 46.552 41.8667 46.3588 42.3544C45.6353 41.8476 45.0584 41.1661 44.6841 40.3764M48.5488 40.2504L43.3959 38.7511C42.9537 38.3461 42.3655 38.1287 41.7599 38.1464C41.8797 37.8123 42.0262 37.488 42.1979 37.1763L50.0174 39.4567C49.4849 39.7003 48.9911 39.9522 48.5359 40.2126L48.5488 40.2504ZM51.808 38.7134L42.7905 36.1054C43.0095 35.7526 43.2413 35.3873 43.499 35.0093L53.8047 38.0204C53.1348 38.2094 52.4392 38.4236 51.7951 38.6756L51.808 38.7134ZM56.0204 37.3905L44.2719 33.9636L44.9933 32.9809L58.2362 36.8487L56.0204 37.3905ZM60.8126 36.3448L45.7663 31.9226L46.5005 30.9903L63.389 35.9038C62.5259 36.0298 61.6628 36.1684 60.7997 36.307L60.8126 36.3448ZM61.4825 29.8942L50.2492 26.6185C50.4554 26.3791 50.6486 26.1524 50.8547 25.9382L59.9881 28.6847L61.4825 29.8942ZM57.5405 26.6941L51.7307 24.9429L52.1687 24.4641L56.3683 25.724L57.5405 26.6941ZM54.0108 23.7082L53.1091 23.4436L53.3538 23.1664L54.0108 23.7082ZM49.399 27.576L63.9559 31.8218L65.6048 33.1699L48.7549 28.2564L49.399 27.576ZM42.8291 47.0664C42.185 45.2143 39.9178 42.8584 40.8066 41.0945C42.9322 41.4977 42.5328 44.3702 45.3798 44.0804C44.5424 45.1261 44.4265 46.827 42.7905 47.0664H42.8291ZM47.4152 58.0021C46.6938 54.0209 52.0399 47.6333 48.9353 43.0851C51.5117 36.1306 67.872 37.5039 66.4163 38.1086C66.6353 39.0535 67.7046 39.3685 68.5033 43.7781C68.5033 43.7781 73.3341 59.577 68.7609 66.4559C64.7288 68.9757 59.8464 66.2417 56.5615 64.9692C56.4842 66.5315 57.8497 66.6701 59.1379 66.9473C56.7161 68.3079 54.9383 64.7551 52.5294 64.4275C53.8176 68.9757 59.6661 70.0088 64.7288 69.404C63.7839 71.3451 62.3902 73.0445 60.658 74.3679C57.6178 72.8435 54.7709 71.1804 51.9497 69.4418C52.3362 66.7331 51.151 65.5866 51.4344 62.9786C46.3588 64.5787 42.9708 61.2526 41.2704 57.9391L47.4152 58.0021ZM52.5036 74.3805C50.8161 76.157 49.2444 73.6246 49.9272 71.4072C52.0399 71.1804 51.3185 73.7002 52.465 74.4057L52.5036 74.3805ZM48.858 65.9519C49.1929 68.1063 47.982 68.7489 47.3379 69.9332C44.7614 69.2024 42.9966 66.7709 44.7614 64.4653C46.0338 65.1784 47.418 65.6808 48.858 65.9519ZM34.1594 39.5953C31.8278 39.3937 30.1788 38.5244 30.0887 36.118C31.364 32.351 36.5813 36.7605 34.1594 39.5953ZM33.6441 40.5906C31.8535 42.4552 28.4913 40.9055 28.5557 38.0708C30.5653 38.6378 30.9131 40.7796 33.6441 40.5906ZM25.5155 53.0256C25.1159 53.0552 24.7156 52.9783 24.3572 52.803C23.9988 52.6277 23.6957 52.3607 23.4801 52.0303C20.6461 53.2902 21.0712 55.9989 21.4447 59.4888C18.1211 53.8571 21.1098 45.6301 24.4978 42.0898C26.2627 42.493 26.4559 41.3465 28.0533 41.5859C28.2208 44.1056 26.121 44.3324 26.5332 47.0664C28.1692 47.5073 27.2417 45.4411 28.0533 45.0757C29.0323 45.2773 28.0533 47.3435 30.0887 46.5624C28.3753 48.5026 25.8247 49.6869 25.5155 53.0256ZM36.1819 65.9519C33.6055 61.7062 27.1644 55.2178 29.5734 51.5389C36.1846 59.2829 42.2982 67.4206 47.8789 75.905C45.689 75.905 46.011 78.4248 43.8082 78.4248C41.3734 75.3507 39.1191 70.8655 36.1819 65.9519ZM43.8082 87.3699C35.4863 84.1446 20.0148 96.2521 10.7654 87.8739C10.9716 83.7666 17.9666 79.0547 22.4624 78.4248C24.2531 78.1728 28.0404 77.505 27.538 80.9445C24.2531 80.9445 20.981 80.8311 18.907 81.9398C26.454 83.364 34.1038 84.2065 41.7857 84.4596C45.2638 80.05 48.3298 75.6404 55.5052 76.0058C56.394 76.1192 56.6646 76.8625 56.5229 77.9964C55.0929 79.3319 54.4359 77.1145 52.465 77.4924C52.465 80.3398 55.8143 79.8358 57.5405 80.9697C57.27 82.8973 58.4552 83.4013 58.0558 85.4549C52.5938 83.5147 47.8403 86.173 43.8082 87.3321V87.3699ZM47.8789 88.3652C50.8676 90.0912 52.027 93.5937 53.4698 96.819C53.0635 96.6456 52.6249 96.556 52.1816 96.556C51.7382 96.556 51.2997 96.6456 50.8934 96.819V94.8032C49.399 94.6646 49.3217 95.9245 47.8403 95.7985C46.7968 93.4551 48.1237 91.9559 47.8789 88.3274V88.3652ZM43.7051 106.23C42.9579 105.059 42.4942 104.114 42.4942 104.114L44.4265 102.677C44.2075 104.076 43.9627 105.474 43.8855 106.772C43.8553 106.583 43.7944 106.4 43.7051 106.23ZM26.0179 133.419C24.7297 136.518 27.6797 138.71 27.1258 140.915C26.8771 141.483 26.4233 141.943 25.8508 142.205C25.2783 142.468 24.6271 142.515 24.0212 142.338C21.5478 140.965 25.6572 135.774 22.5526 134.666C20.4786 134.968 22.5526 138.269 21.0969 139.302C18.0181 140.461 17.5157 136.341 19.0873 134.842C17.7991 133.847 17.7991 131.73 17.4513 129.803C22.2692 129.878 26.3013 130.118 31.3125 129.803C29.9599 132.574 27.2932 130.395 26.0179 133.419ZM15.9827 129.639C15.1067 121.286 27.5767 119.56 32.7295 123.919C33.41 125.332 34.1624 126.712 34.9839 128.051C35.0406 128.64 35.0146 129.234 34.9066 129.815C34.2367 130.004 34.8293 128.946 34.0048 129.286C28.3625 129.5 20.1436 128.883 15.9827 129.664V129.639ZM34.5974 131.277C34.7391 130.886 35.7311 131.277 35.5121 130.559C35.2817 129.979 35.2545 129.341 35.4348 128.744C38.694 133.998 42.7132 139.063 44.3234 144.027C41.3219 142.313 38.3848 140.549 34.1594 140.045C33.8837 140.315 33.6533 140.625 33.4767 140.965C33.8503 137.727 34.2496 134.527 34.5974 131.277ZM38.2302 155.958C40.549 153.892 44.6713 155.958 45.8564 157.948C42.4169 158.175 39.2865 158.112 38.2302 155.958ZM46.8741 155.958C41.309 153.199 36.3236 149.356 34.1594 143.535C33.7858 142.175 35.1642 142.527 35.1642 141.532C45.1479 143.057 48.0464 151.498 53.9851 156.953C52.6067 159.712 48.858 156.953 46.8741 155.958ZM53.4698 160.43C54.0624 159.17 55.4923 158.767 55.5052 156.953C56.7539 157.131 57.8986 157.733 58.7375 158.655C59.5764 159.577 60.0558 160.759 60.0912 161.993C57.7853 162.925 55.0285 161.64 53.4698 160.43ZM48.858 148.499C53.0576 146.887 54.1397 152.606 59.0349 151.977C59.7563 153.929 61.0574 155.29 61.0574 157.948C58.4459 157.331 56.0026 156.166 53.8964 154.534C51.7901 152.903 50.0711 150.844 48.858 148.499ZM52.9287 147.504C54.6549 146.496 57.6565 148.499 58.0816 150.49C55.6984 150.124 53.7017 149.432 52.9674 147.504H52.9287ZM68.6836 149.003C66.3382 149.416 63.9541 149.581 61.5727 149.495C60.6194 144.543 60.3875 138.975 58.9962 134.578C58.5582 133.179 57.3988 131.982 57.4632 130.596C57.708 125.872 62.6161 124.058 64.0847 119.661C67.7561 122.508 69.0443 126.237 68.645 132.096C65.0251 134.124 61.9849 134.615 62.5517 138.559C63.0928 141.797 70.2939 144.253 68.7222 149.003H68.6836ZM71.26 138.559C63.6982 136.215 74.0039 130.168 71.26 138.559V138.559ZM79.9168 151.485C74.4419 152.392 68.9928 149.343 69.2375 143.031C67.7561 140.99 64.7932 140.411 63.6467 137.992C64.0203 136.379 64.484 134.842 66.6997 135.019C67.4212 137.072 69.2762 142.338 71.7753 139.491C73.1408 140.323 69.9203 142.527 71.7753 143.964C73.0635 144.102 73.9653 143.775 73.8107 142.477C76.0393 145.337 77.7784 148.6 79.9168 151.485ZM85.4948 123.138C82.0424 127.207 77.7655 130.496 74.8413 135.082C72.793 133.255 70.1779 132.007 69.6884 128.618C71.917 127.195 72.5611 130.924 74.8413 131.138C76.1295 129.462 74.0039 127.875 73.3083 126.666C74.7511 125.116 76.4515 127.522 78.3839 127.157C76.1424 122.054 70.0749 120.706 65.6692 117.708C65.6692 115.944 67.5629 115.894 67.2022 113.739C62.4358 117.027 60.1299 122.722 56.0204 126.666C54.2169 126.766 55.0028 124.322 52.9674 124.675C56.3611 131.887 58.4281 139.628 59.0735 147.542C56.2266 146.509 53.9207 144.921 52.9674 142.074C50.9062 142.376 49.7726 143.598 46.8741 143.069C44.0916 135.837 38.9774 130.899 34.6618 125.166C38.0885 119.572 42.9322 115.352 47.3765 110.753C57.5847 111.098 67.8022 110.418 77.8686 108.725C78.2035 111.245 75.2921 110.501 74.8413 112.202C76.0393 115.654 78.371 118.01 79.9168 121.147C81.9522 121.664 84.928 121.273 85.4948 123.138ZM83.4723 119.661C79.4789 119.257 76.297 113.89 77.8686 111.207C80.9474 112.832 81.7719 116.687 83.4723 119.661ZM76.8638 95.7985C77.5723 96.5922 77.2889 98.3183 78.3839 98.7718C71.0539 94.0599 79.6721 84.7116 82.957 80.3776C84.9022 83.7792 81.7976 86.5258 79.9168 87.8361C80.3935 91.9559 79.2856 94.5134 76.8638 95.7985ZM79.4402 98.3183C80.4851 98.1121 81.571 98.2869 82.4933 98.8096C82.3516 100.372 79.1568 99.9183 79.4016 98.2805L79.4402 98.3183ZM121.127 142.578C107.124 132.007 95.2337 119.459 82.4546 107.717C82.6092 105.361 84.1551 108.611 85.4948 108.221C87.8394 104.34 94.3577 107.616 95.6717 102.753C98.1322 103.673 99.2143 105.915 102.796 105.739C110.173 116.75 117.473 127.854 124.695 139.05C124.27 141.003 122.647 141.734 121.088 142.54L121.127 142.578Z" fill="#303849"/>
<path id="Vector_51" d="M66.6987 51.5396C65.4105 51.0356 63.2849 50.6702 62.6279 52.0309C63.7873 53.0388 67.6649 52.1443 67.6649 52.1443L67.8066 51.0356C62.0869 47.5205 61.4299 45.7063 61.4814 44.9756C59.9871 48.6544 65.7197 48.9694 66.6987 51.5396Z" fill="#303849"/>
</g>
</g>
<defs>
<clipPath id="clip0_1274_4588">
<rect width="120" height="120" fill="white" transform="translate(0.5 0.5)"/>
</clipPath>
</defs>
</svg>
