<svg width="100" height="125" viewBox="0 0 100 125" fill="none" xmlns="http://www.w3.org/2000/svg">
<g id="Group 231">
<path id="Vector" d="M6.74219 94.7164C6.74219 94.7164 18.2061 94.1153 20.5448 94.7164L18.7197 100.891L16.6106 105.678L12.1736 107.667L7.80224 105.208L7.56182 99.6014V96.3228L6.74219 94.7164Z" fill="white"/>
<path id="Vector_2" d="M26.915 15.6171C26.915 15.6171 34.0294 3.79255 38.521 1.41016L51.034 12.4042L51.4821 13.2238L49.9849 15.1253L50.1597 16.4149L52.3454 24.6112C52.3454 24.6112 54.695 37.1024 51.0012 40.2607L50.8701 40.3591C47.0014 43.3425 48.4112 42.4901 48.4112 42.4901L45.4168 47.2549L42.947 47.8888L36.1058 43.2879L35.6686 38.8182L31.636 37.9876L29.1881 35.3976L27.1663 31.9442L30.3574 31.7038L28.1717 23.3217L26.1172 19.1033L26.915 15.6171Z" fill="white"/>
<path id="Vector_3" d="M27.1866 77.8442L21.0885 70.0413C20.5749 69.932 16.7171 71.9975 15.6243 73.1012C14.8812 73.9239 14.2759 74.8612 13.832 75.8771L16.4002 75.2978L15.0451 77.4835L17.4056 76.8169L16.3128 78.7622L18.7607 78.3469L17.6679 80.3359L19.6678 79.549L18.575 81.7347L20.9683 80.926L19.8754 83.1117C22.6841 82.9477 27.1866 77.8442 27.1866 77.8442Z" fill="#303849"/>
<path id="Vector_4" d="M21.7346 16.4155C23.7892 13.9566 19.3632 10.1317 18.2812 13.3993C18.3577 15.4866 19.7566 16.2407 21.7346 16.4155Z" fill="white"/>
<path id="Vector_5" d="M21.2975 17.2775C18.9806 17.4414 18.6856 15.5836 16.9808 15.0918C16.948 17.5835 19.7784 18.8949 21.2975 17.2775Z" fill="white"/>
<path id="Vector_6" d="M31.2205 20.3049C28.8053 20.5562 29.1441 18.1192 27.3409 17.7148C26.5868 19.2448 28.5102 21.2884 29.0567 22.8949C30.4446 22.6873 30.5429 21.2119 31.2205 20.3049Z" fill="white"/>
<path id="Vector_7" d="M16.5536 21.1693C15.8651 21.4862 16.652 23.2785 15.2641 22.896C14.9143 20.5245 16.6957 20.3059 16.5536 18.1421C15.1985 17.9345 15.0346 18.9289 13.5374 18.5792C10.6632 21.6611 8.07316 28.7864 10.9473 33.6714C10.6304 30.6442 10.2698 28.3055 12.674 27.2018C12.8569 27.4884 13.114 27.72 13.4181 27.872C13.7221 28.0241 14.0617 28.0908 14.4007 28.0651C14.663 25.1691 16.8268 24.1637 18.2803 22.4588C16.5864 23.1364 17.3842 21.3441 16.5536 21.1693Z" fill="white"/>
<path id="Vector_8" d="M58.8143 31.0803C59.164 27.1024 57.645 21.2447 62.7049 22.0316C63.4807 23.1657 63.7899 24.5551 63.5682 25.9112C68.7264 23.6271 59.5793 18.6 57.9619 22.8949C58.3991 25.474 57.0111 29.8782 58.8143 31.0803Z" fill="white"/>
<path id="Vector_9" d="M41.5725 23.322C41.5686 22.9564 41.4338 22.6044 41.1927 22.3296C40.9517 22.0548 40.6201 21.8754 40.2582 21.8239C39.8963 21.7723 39.5279 21.8521 39.2197 22.0487C38.9115 22.2454 38.6839 22.5458 38.5781 22.8958C39.9551 22.6444 40.5671 23.1908 41.5725 23.322Z" fill="#303849"/>
<path id="Vector_10" d="M74.7811 23.3228C73.8741 22.9622 73.0982 21.5524 72.1911 22.4595C71.9288 23.9895 74.4314 24.9621 74.7811 23.3228Z" fill="white"/>
<path id="Vector_11" d="M31.2173 22.8945C30.6708 23.6704 28.9114 25.725 30.7801 26.337C30.6271 25.1349 32.4303 23.7142 31.2173 22.8945Z" fill="white"/>
<path id="Vector_12" d="M32.5216 23.3223C31.7348 25.7047 31.1228 28.2619 30.3359 30.6552C31.2324 29.6786 31.895 28.511 32.2736 27.2406C32.6523 25.9702 32.7371 24.6303 32.5216 23.3223Z" fill="white"/>
<path id="Vector_13" d="M40.7615 25.9106V24.1402C40.6513 24.0134 40.5162 23.9106 40.3647 23.8382C40.2131 23.7658 40.0482 23.7254 39.8803 23.7195C39.7124 23.7136 39.5451 23.7423 39.3888 23.8039C39.2325 23.8654 39.0906 23.9585 38.9718 24.0772C38.853 24.196 38.7599 24.338 38.6984 24.4943C38.6368 24.6506 38.6081 24.8179 38.614 24.9858C38.6199 25.1537 38.6604 25.3185 38.7327 25.4701C38.8051 25.6217 38.9079 25.7568 39.0348 25.8669L40.7615 25.9106Z" fill="#303849"/>
<path id="Vector_14" d="M50.5944 21.6935C50.6152 21.312 50.4925 20.9364 50.2504 20.6407C50.0083 20.3451 49.6643 20.1507 49.2861 20.0959C48.9079 20.0411 48.5229 20.1298 48.2068 20.3446C47.8907 20.5593 47.6665 20.8846 47.5781 21.2564C48.9551 21.0051 49.5562 21.5515 50.5944 21.6935Z" fill="#303849"/>
<path id="Vector_15" d="M48.4091 24.283H50.1576V22.5454C49.9272 22.3135 49.6141 22.1827 49.2872 22.1816C48.9603 22.1806 48.6464 22.3095 48.4145 22.5399C48.1826 22.7703 48.0518 23.0834 48.0508 23.4103C48.0498 23.7372 48.1786 24.0511 48.4091 24.283Z" fill="#303849"/>
<path id="Vector_16" d="M33.3731 47.909C28.6282 40.5486 23.4308 33.4898 17.8111 26.7734C15.7784 29.9645 21.2644 35.5927 23.4173 39.2756C25.909 43.5376 27.7887 47.4282 29.887 50.0619C31.7885 50.0619 31.5153 47.9199 33.3731 47.909Z" fill="white"/>
<path id="Vector_17" d="M57.9619 56.5315C64.5736 51.0673 62.5081 36.9259 64.8577 27.1996C63.2512 28.0521 61.8087 27.0357 60.1148 26.7734C60.8142 37.833 57.4373 47.0894 57.9619 56.5315Z" fill="white"/>
<path id="Vector_18" d="M69.1758 30.2281C70.7605 30.0751 71.1539 28.7418 71.7659 27.638C70.4545 25.9004 68.3344 27.343 68.3125 29.3647C68.8043 29.4522 68.9901 29.8347 69.1758 30.2281Z" fill="white"/>
<path id="Vector_19" d="M41.1434 30.7867C39.821 31.3113 44.7716 35.1581 49.3397 32.9724C50.2542 32.551 51.0839 31.9658 51.7877 31.2457C52.1592 30.0764 51.0336 30.9288 49.5255 32.1091C48.0501 33.0489 43.1214 32.6883 41.1434 30.7867Z" fill="#303849"/>
<path id="Vector_20" d="M87.7558 31.9453C87.7739 31.7154 87.7419 31.4843 87.6621 31.2679C87.5823 31.0515 87.4565 30.855 87.2934 30.6919C87.1303 30.5289 86.9338 30.4031 86.7175 30.3232C86.5011 30.2434 86.27 30.2114 86.0401 30.2295C86.022 30.4594 86.054 30.6906 86.1338 30.9069C86.2136 31.1233 86.3394 31.3198 86.5025 31.4829C86.6656 31.646 86.8621 31.7717 87.0784 31.8516C87.2948 31.9314 87.5259 31.9634 87.7558 31.9453Z" fill="white"/>
<path id="Vector_21" d="M68.3143 30.6973C66.686 31.0907 64.6533 33.3419 65.7243 35.014C66.0849 33.025 67.9537 32.5879 68.3143 30.6973Z" fill="white"/>
<path id="Vector_22" d="M81.25 37.9871C83.8291 36.9598 84.6487 34.1949 86.4301 32.3808C84.2007 31.8781 81.3593 36.3697 81.25 37.9871Z" fill="white"/>
<path id="Vector_23" d="M29.4961 33.2455C30.0097 35.1799 32.9167 34.7099 34.6762 35.4312C34.4685 33.3111 31.1244 32.5243 29.4961 33.2455Z" fill="#303849"/>
<path id="Vector_24" d="M69.1757 44.0304C68.4544 45.6478 71.1756 45.9866 70.039 46.6095C68.8587 46.9264 69.1757 45.7571 68.3123 45.7571C68.0173 47.4619 66.1266 47.6367 65.7223 49.1995C66.2031 49.4946 67.908 50.6311 67.0228 50.9262C66.4545 50.9918 65.7223 49.1777 65.2852 50.5C66.6403 50.8716 66.7058 52.5327 67.8861 53.0791C70.5089 49.8006 72.8367 46.2488 76.0824 43.5932C79.6123 45.6696 82.8471 48.0411 86.8579 49.6367C87.3606 48.5438 88.5736 48.1941 88.5846 46.6095C85.8306 46.1942 85.7432 42.0195 82.9783 44.0304C83.1641 43.1998 83.9072 42.9375 83.8416 41.8447C83.2295 41.6605 82.6726 41.3276 82.2206 40.8756C81.7687 40.4236 81.4357 39.8667 81.2516 39.2546C79.656 39.3858 80.0822 41.5387 78.2353 41.4403C78.3337 39.812 79.8527 39.6044 79.962 37.9869C78.8692 36.7302 77.9403 35.4078 76.0824 34.9707C75.689 35.8778 74.771 36.2384 74.782 37.5498C75.0552 38.7192 76.5851 38.6427 76.5086 40.1398C75.4158 39.6481 75.0661 38.4241 73.5033 38.4241C73.7328 39.9431 71.9624 39.5169 72.1919 41.0032C71.7001 42.2709 74.2683 42.6097 73.0553 43.1889C72.2903 42.7955 71.7985 42.096 70.8696 41.8884C70.6619 42.9157 70.5308 44.085 69.1757 44.0304Z" fill="white"/>
<path id="Vector_25" d="M70.0355 41.0047C69.358 38.0868 66.0576 37.8027 64.8555 35.3984C64.9975 38.8518 68.2761 39.1687 70.0355 41.0047Z" fill="white"/>
<path id="Vector_26" d="M32.9439 42.7195C33.4903 41.6922 34.5176 41.1349 34.2335 39.2661C33.0194 39.0286 31.8527 38.5929 30.7801 37.9766C29.261 39.9874 30.791 42.0966 32.9439 42.7195Z" fill="white"/>
<path id="Vector_27" d="M47.1854 38.8518C46.9122 40.4364 50.8792 39.9446 50.2016 38.4256C48.7919 38.1742 48.1908 38.7097 47.1854 38.8518Z" fill="#303849"/>
<path id="Vector_28" d="M64.431 47.9112C65.7643 45.6599 67.9172 44.1955 68.8024 41.4415C67.0976 40.9826 66.6167 39.2559 64.431 39.2559C64.9884 42.436 63.1087 45.4304 64.431 47.9112Z" fill="white"/>
<path id="Vector_29" d="M50.2021 53.5165C47.765 53.3853 46.3662 54.2815 43.7325 53.9427C42.8363 61.4614 48.7377 62.1718 51.0545 66.4557C51.6009 64.0296 53.3932 64.5542 55.4259 64.27C54.0986 56.6241 52.0795 49.1146 49.3934 41.834C49.3497 45.9977 49.9944 49.5385 50.2021 53.5165Z" fill="white"/>
<path id="Vector_30" d="M35.1009 44.0309C34.4998 45.9543 35.8331 48.1509 37.2866 46.61C36.2921 45.998 36.9041 43.8124 35.1009 44.0309Z" fill="white"/>
<path id="Vector_31" d="M73.0534 49.2019C73.5015 47.9014 76.1024 46.5244 75.2391 45.3223C74.7692 46.6118 72.1682 47.9997 73.0534 49.2019Z" fill="white"/>
<path id="Vector_32" d="M42.005 56.1064C42.3438 54.3251 41.3383 53.9208 41.5678 52.2159C40.1034 51.2324 37.1965 51.6695 37.262 49.1997C38.9341 48.8718 39.4477 50.7952 40.7045 49.6368C40.8247 48.6533 40.5952 48.0085 39.8411 47.9101C33.754 47.5495 31.153 51.4181 28.2024 55.2431C21.6855 55.0236 15.1959 54.2928 8.79348 53.0574C10.553 52.0957 13.3288 52.1394 16.1155 52.1941C16.5417 49.2434 13.3288 49.8226 11.8097 50.0084C7.99571 50.5439 2.06157 54.642 1.88672 58.2047C9.73333 65.4721 22.8584 54.9262 29.9181 57.7676C33.3387 56.8168 37.3713 54.5109 42.005 56.1064Z" fill="white"/>
<path id="Vector_33" d="M60.5506 58.2587C62.1461 57.1659 64.7799 54.7397 63.1297 51.7891C60.2992 55.5484 53.0318 63.6573 59.2501 67.7446C58.3212 67.3839 58.5616 65.854 57.9605 65.1655C60.0151 64.0508 60.9549 61.8323 60.5506 58.2587Z" fill="white"/>
<path id="Vector_34" d="M66.1609 53.518C65.3413 53.518 65.8658 52.0863 64.8604 52.2175C65.1118 56.3593 62.5873 57.6817 61.418 60.4138C64.5326 59.6597 65.8986 57.1243 66.1609 53.518Z" fill="white"/>
<path id="Vector_35" d="M42.4341 67.7452C43.0242 65.8983 43.7346 64.1606 45.8875 63.8656C43.7018 60.7291 41.3413 55.9862 35.5273 57.8222C37.713 61.2974 39.2102 65.3628 42.4341 67.7452Z" fill="white"/>
<path id="Vector_36" d="M35.9619 64.3028V66.0185C36.3066 65.8681 36.6787 65.7904 37.0548 65.7904C37.4309 65.7904 37.8029 65.8681 38.1476 66.0185C36.9236 63.2208 35.9619 60.1827 33.4047 58.6855C33.6123 61.8329 32.4867 63.1334 33.4047 65.1661C34.6286 65.2754 34.6942 64.1825 35.9619 64.3028Z" fill="white"/>
<path id="Vector_37" d="M67.8888 63.4834C69.8341 62.2157 67.9435 57.888 65.7031 59.6038C66.8178 61.4288 66.4025 62.3905 67.8888 63.4834Z" fill="white"/>
<path id="Vector_38" d="M62.2812 66.0182C62.8386 64.7724 62.6309 63.5374 61.4179 63.002C61.5271 64.2259 61.0354 65.9636 62.2812 66.0182Z" fill="white"/>
<path id="Vector_39" d="M40.2784 69.045C38.6609 69.4931 39.4259 67.5916 38.5517 67.3184C38.4533 71.0559 33.4809 67.3184 32.082 69.504V75.5037H38.9779C39.4806 71.7444 38.2238 70.6952 40.2784 69.045Z" fill="white"/>
<path id="Vector_40" d="M48.9038 67.7446C47.3192 69.6352 46.2263 71.9411 43.2975 72.4875C42.3576 72.4001 40.9697 70.5422 40.2812 71.6351C41.2539 72.0832 40.4342 74.3453 40.7075 75.5037C46.7399 75.2196 52.6377 74.7934 58.4006 74.2251C58.2804 71.4602 56.9252 69.9412 56.663 67.3184C54.2259 67.5916 50.9037 68.3566 48.9038 67.7446ZM51.92 74.2251C49.6032 73.9301 50.2152 70.4876 50.6305 68.6079C52.1495 69.2527 52.1058 73.3181 51.92 74.2251Z" fill="white"/>
<path id="Vector_41" d="M60.1169 67.3173C59.9092 68.738 62.6085 69.1314 62.7069 67.7435C61.9245 67.2901 61.0033 67.1385 60.1169 67.3173Z" fill="white"/>
<path id="Vector_42" d="M76.0824 69.0447C76.2026 67.9518 75.4813 67.624 74.3448 67.7442C73.9951 69.2851 75.2628 69.8861 76.0824 69.0447Z" fill="#303849"/>
<path id="Vector_43" d="M51.9203 74.2266C52.1061 73.2649 52.1498 69.2542 50.6307 68.6094C50.2154 70.4891 49.6035 73.9315 51.9203 74.2266Z" fill="#303849"/>
<path id="Vector_44" d="M70.9026 70.7716V69.0449H69.1759C68.8371 70.5312 69.4163 71.1323 70.9026 70.7716Z" fill="#303849"/>
<path id="Vector_45" d="M66.5856 70.334H65.7223C65.7223 70.5963 65.6567 70.8476 65.2852 70.7711V71.6345C65.5584 71.6345 65.8097 71.7 65.7223 72.0607H66.5856C66.5856 71.7984 66.6512 71.547 67.0228 71.6345V70.7711C66.7605 70.7383 66.5091 70.6946 66.5856 70.334Z" fill="#303849"/>
<path id="Vector_46" d="M73.9196 71.1992C72.8267 75.4176 67.2751 72.5762 65.2861 75.9422C64.1933 76.2809 62.8382 73.4614 62.707 75.505C73.5262 85.6903 83.635 96.575 95.4923 105.711C96.8147 105.012 98.1916 104.378 98.5195 102.684C92.3996 92.9869 86.2068 83.3553 79.9412 73.7893C76.9249 73.9423 76.0069 71.997 73.9196 71.1992Z" fill="white"/>
<path id="Vector_47" d="M56.2475 79.3971C56.63 77.9218 59.0998 78.5228 58.8157 76.3809C50.2748 77.8389 41.607 78.4175 32.9481 78.1075C29.1778 82.0636 25.0687 85.7574 22.1836 90.6097C25.8446 95.5821 30.1832 99.866 32.5437 106.139C35.0026 106.598 35.9643 105.538 37.7129 105.276C38.5544 107.745 40.4778 109.122 42.893 110.019C42.3454 103.154 40.5919 96.4393 37.7129 90.1835C39.4396 89.8775 38.8057 91.9976 40.3029 91.9102C43.7891 88.4896 45.7671 83.5499 49.7888 80.6976C50.0948 82.5663 48.543 82.6101 48.4883 84.14C52.2258 86.741 57.3731 87.9103 59.2747 92.3364C57.6354 92.6533 56.1929 90.566 54.9689 91.9102C55.559 93.003 57.3841 94.3363 56.2694 95.7897C54.3787 95.6367 53.8323 92.4019 51.898 93.6041C52.2696 96.5438 54.488 97.6257 56.2694 99.2103C58.7501 95.2324 62.3783 92.3801 65.3072 88.8502C64.7826 87.2328 62.3018 87.5716 60.5751 87.1235C59.2419 84.4351 57.2638 82.3915 56.2475 79.3971Z" fill="white"/>
<path id="Vector_48" d="M63.5701 85.8642C62.1276 83.2851 61.3845 79.941 58.8163 78.5312C57.483 80.859 60.1823 85.5145 63.5701 85.8642Z" fill="white"/>
<path id="Vector_49" d="M53.2079 102.257C46.7929 100.224 55.5356 94.9787 53.2079 102.257V102.257Z" fill="white"/>
<path id="Vector_50" d="M53.6419 107.002C52.0682 105.756 54.8003 103.843 53.6419 103.122C51.5546 105.592 49.9481 101.024 49.3361 99.2425C47.4564 99.0895 47.063 100.423 46.7461 101.822C47.7187 103.865 50.2323 104.368 51.489 106.193C51.2814 111.657 55.8604 114.313 60.5487 113.526C58.7346 111.023 57.2702 108.193 55.3686 105.767C55.4998 106.838 54.7785 107.122 53.6419 107.002Z" fill="white"/>
<path id="Vector_51" d="M22.5866 104.836C22.5866 105.699 21.4172 105.393 21.7342 106.574C23.5701 111.622 27.7994 114.956 32.5205 117.349C34.2035 118.212 37.3837 120.628 38.553 118.212C33.515 113.48 31.0561 106.158 22.5866 104.836Z" fill="white"/>
<path id="Vector_52" d="M37.6875 110.015C38.3104 111.687 40.0043 112.288 42.0589 112.605C41.6982 110.878 39.1519 109.141 37.6875 110.015Z" fill="white"/>
<path id="Vector_53" d="M34.2031 110.88C35.2322 112.914 36.6906 114.7 38.4774 116.115C40.2642 117.531 42.3369 118.541 44.5523 119.077C44.5523 116.771 43.4595 115.591 42.8366 113.897C38.7166 114.443 37.7986 109.482 34.2031 110.88Z" fill="white"/>
<path id="Vector_54" d="M25.1875 117.35C26.0836 119.175 28.7174 119.273 31.6571 119.076C30.6408 117.317 27.1546 115.557 25.1875 117.35Z" fill="white"/>
<path id="Vector_55" d="M39.84 118.213C39.84 119.787 38.616 120.147 38.1133 121.229C39.4356 122.322 41.7743 123.415 43.7305 122.53C43.6879 121.469 43.2756 120.457 42.565 119.668C41.8544 118.88 40.8904 118.365 39.84 118.213Z" fill="white"/>
<path id="Vector_56" d="M84.2654 31.082C83.6643 33.071 80.5388 34.8196 80.8229 36.2621C81.7081 34.5463 84.8008 32.7869 84.2654 31.082Z" fill="white"/>
<path id="Vector_57" d="M65.2812 63.4845C65.2812 64.3369 64.1119 64.0309 64.4288 65.2112C65.7839 65.6921 65.4014 65.2112 67.0188 65.2112C66.2534 63.487 65.0656 61.9836 63.5654 60.8398C62.0901 62.4573 64.2867 62.9927 65.2812 63.4845Z" fill="white"/>
<path id="Vector_58" d="M76.9429 64.7291C76.1278 64.0789 75.2576 63.5011 74.3419 63.0024C74.0141 61.232 75.0086 60.8167 74.7791 59.1228C72.0251 58.4343 71.0743 55.9208 70.8995 52.6532C69.1837 51.2543 69.8831 55.1339 67.8832 54.8388C69.9487 50.8828 75.3036 50.1943 77.8062 46.6425C80.6718 47.9851 83.4143 49.5757 86.0026 51.3964C88.1336 50.7953 88.7456 48.6752 89.8712 47.0797C88.0134 44.3366 84.9097 42.8504 83.4016 39.7467C85.0846 36.6758 88.0899 34.9382 89.445 31.5504C88.4268 30.2286 87.0928 29.1839 85.5654 28.5123C83.3032 30.8619 81.6749 33.8126 79.0958 35.8452C77.533 35.5283 77.8609 33.3317 76.0795 33.2552C73.5879 34.654 72.801 37.7468 70.4733 39.2877C69.2493 37.9107 66.9762 37.6047 66.5827 35.4081C69.2821 32.8836 71.2929 29.7581 75.2162 28.5123C75.6746 29.0722 76.2825 29.4906 76.9692 29.7189C77.656 29.9471 78.3934 29.9759 79.0958 29.8018C82.5273 23.1573 74.5277 17.6603 67.4461 17.2888C64.2768 19.7695 67.7958 22.4579 69.1728 24.1409C68.0144 26.4359 67.457 29.3319 65.7194 31.0367C68.3969 23.507 62.8671 17.4636 58.3974 20.6875C53.3484 24.3267 60.0803 38.6866 56.2117 44.8503C54.1714 44.0287 52.3818 42.6874 51.0207 40.9597C55.9166 35.2332 52.5944 23.5617 50.5398 15.9555C48.9443 15.5402 52.5616 13.9119 51.9824 12.4912C50.8895 10.4148 47.5345 8.29468 44.5292 6.06528C41.8954 4.13095 39.5458 2.12011 39.2398 0C35.5132 0.874274 25.6011 13.4092 25.164 18.5783C24.7378 23.4633 29.8851 26.5889 29.0327 31.0804C28.366 31.9001 27.3606 30.4685 26.4536 31.5176C25.7432 33.8235 28.8687 34.5448 27.3169 36.2605C23.4045 32.4028 19.9074 28.1407 19.1206 21.1684C20.0386 19.3542 22.5084 19.092 23.4264 17.2778C25.0547 7.78104 13.1865 10.7208 15.241 17.2778C5.63492 18.5128 6.97911 34.7633 12.651 39.2768C14.8913 39.2768 14.3012 37.4845 14.8366 36.6977C15.1754 38.02 15.7 38.0746 17.0223 37.5501C18.6616 35.4627 14.5197 33.5831 16.159 31.5176C20.0932 34.348 21.7106 39.4844 23.9291 44.0306C22.5084 43.8667 23.0548 41.7357 21.3391 41.8449C18.9567 42.9378 15.8749 43.2875 13.5799 44.435C13.1427 46.118 14.5307 46.9376 13.5799 47.8884C7.31789 49.3965 2.07225 51.921 0.640625 58.2376C6.30155 66.5869 19.0659 61.5161 28.672 59.9643C31.2074 62.6855 29.1638 64.5433 28.672 66.4339C29.2403 66.6415 30.5299 66.1279 30.7484 66.6853C29.4014 67.6694 28.1098 68.7275 26.8798 69.8545L25.3061 68.401C25.3061 68.401 24.3444 67.494 21.9183 69.0895L28.1693 77.3295L29.8086 76.04C29.9022 75.9078 29.9792 75.7647 30.0381 75.6138C30.0108 76.6354 30.2844 77.6425 30.8249 78.5098C27.4481 81.7883 23.8417 84.7827 20.9894 88.5858C16.618 84.9467 6.20319 86.0723 5.85348 92.5091C5.85348 93.449 6.31248 94.1921 6.00648 95.4489C6.11577 95.8642 6.8589 95.6237 6.7824 96.2248C7.37253 100.902 7.87524 105.678 8.32331 110.432H20.5522C20.6396 109.251 20.7817 108.126 20.891 106.967C21.4483 108.913 23.0767 110.989 23.4482 112.978C15.2956 114.071 5.7442 113.667 1.02312 118.158C10.6183 120.759 23.9728 123.349 35.5242 121.174C38.2891 122.18 40.5949 125.393 44.5838 123.764C45.2665 122.525 45.6945 121.161 45.8428 119.753C45.9911 118.346 45.8566 116.923 45.4472 115.568C51.6982 113.94 57.8072 116.027 62.2769 113.841C61.4245 110.956 59.217 109.47 57.9056 106.946C57.7416 105.339 59.6541 105.853 59.1951 103.929C58.1023 102.76 55.3483 103.175 55.3155 100.902C58.5941 98.4979 66.1784 92.2906 66.5281 88.8263C67.1729 82.5861 58.0476 78.8705 59.6323 71.5812C60.1787 72.1713 61.665 71.8435 62.2223 72.4336C62.0256 73.6795 60.6923 73.7887 60.9218 75.4499C72.7573 85.9084 83.4999 97.4597 95.8928 107.372C103.138 103.951 97.2588 98.0717 94.1661 93.1648C88.3303 83.8429 81.0629 73.0784 76.9429 64.7291ZM70.0361 56.1065C70.4623 57.6912 71.9268 58.2922 72.6262 59.5599C72.5169 65.9858 77.7079 67.1224 79.0958 72.062C74.3747 67.8546 68.987 72.226 64.0036 73.7887C63.1621 72.1713 64.9872 71.5156 63.5665 69.9091C70.8558 70.4337 72.3092 60.7293 67.4461 57.3961C68.5717 57.2212 68.7466 56.1065 70.0361 56.1065ZM61.4136 60.4123C62.5829 57.713 65.1074 56.3579 64.8561 52.216C65.8615 52.0849 65.3369 53.4728 66.1565 53.5165C65.8942 57.1229 64.5282 59.6583 61.4136 60.4123ZM62.2769 66.0186C61.0311 66.0186 61.4792 64.2264 61.4136 63.0024C62.6157 63.5379 62.8343 64.7728 62.2769 66.0186ZM60.0913 26.7746C61.7852 27.0369 63.2277 28.0533 64.8342 27.2009C62.4846 36.9272 64.5501 51.0685 57.9384 56.5328C57.4357 47.0906 60.8125 37.8342 60.1131 26.7746H60.0913ZM64.4626 39.2768C66.6483 39.2768 67.0745 40.9816 68.834 41.4625C68.0034 44.2164 65.8505 45.6808 64.4626 47.9321C63.1075 45.4295 64.9872 42.4351 64.4298 39.2768H64.4626ZM67.8832 63.4832C66.397 62.3904 66.7904 61.4724 65.6975 59.6036C67.9379 57.8442 69.8285 62.1718 67.8832 63.4832ZM63.5665 60.8932C65.0667 62.0369 66.2544 63.5404 67.0199 65.2646C65.4025 65.2646 65.785 65.7454 64.4298 65.2646C64.1129 64.0843 65.2823 64.3903 65.2823 63.5379C64.2878 62.9915 62.0912 62.456 63.5665 60.8495V60.8932ZM73.0524 49.2435C72.1672 48.0414 74.7681 46.6535 75.2381 45.3639C76.1014 46.5223 73.5442 47.8993 73.0524 49.1998V49.2435ZM87.7511 31.9438C87.5212 31.9619 87.2901 31.9299 87.0737 31.8501C86.8573 31.7702 86.6608 31.6445 86.4978 31.4814C86.3347 31.3183 86.2089 31.1218 86.1291 30.9054C86.0492 30.6891 86.0173 30.4579 86.0353 30.228C86.2653 30.2099 86.4964 30.2419 86.7127 30.3217C86.9291 30.4016 87.1256 30.5274 87.2887 30.6904C87.4518 30.8535 87.5776 31.05 87.6574 31.2664C87.7372 31.4828 87.7692 31.7139 87.7511 31.9438ZM86.4615 32.3809C84.6802 34.195 83.8606 36.9599 81.2815 37.9872C81.358 36.3698 84.1994 31.8782 86.4288 32.3809H86.4615ZM84.2759 31.0804C84.8114 32.7853 81.7186 34.5448 80.8334 36.2605C80.5383 34.818 83.6639 33.0694 84.2649 31.0804H84.2759ZM70.8995 41.8668C71.7956 42.1182 72.2874 42.7739 73.0852 43.1673C74.2982 42.6099 71.73 42.2712 72.2218 40.9816C71.9923 39.4626 73.7627 39.8888 73.5332 38.4025C75.096 38.4025 75.4566 39.6265 76.5385 40.1183C76.615 38.6101 75.0851 38.6976 74.8119 37.5282C74.8119 36.2168 75.7189 35.8562 76.1123 34.9491C77.9702 35.3862 78.9428 36.7086 79.9919 37.9654C79.8826 39.5828 78.3636 39.7904 78.2652 41.4187C80.1121 41.539 79.6859 39.3861 81.2815 39.2331C81.4656 39.8451 81.7986 40.4021 82.2505 40.854C82.7025 41.306 83.2594 41.6389 83.8715 41.8231C83.9371 42.9159 83.194 43.1564 83.0082 44.0088C85.7731 41.9979 85.8605 46.1945 88.6145 46.5879C88.6145 48.1725 87.3905 48.5331 86.8878 49.6151C82.877 48.0195 79.6422 45.648 76.1123 43.5716C72.8338 46.2272 70.5388 49.7899 67.916 53.0575C66.7357 52.5111 66.6702 50.8718 65.315 50.4784C65.7522 49.1561 66.4844 50.9702 67.0527 50.9046C67.9925 50.6095 66.233 49.473 65.7522 49.1779C66.2003 47.6152 68.0471 47.4403 68.3422 45.7355C69.2056 45.7355 68.8886 46.9048 70.0689 46.5879C71.1618 45.965 68.4843 45.6262 69.2056 44.0088C70.5279 44.0853 70.659 42.9159 70.8995 41.8668ZM74.7791 23.2885C74.4294 24.9277 71.9268 23.9551 72.189 22.4251C73.0961 21.5509 73.872 22.9606 74.7791 23.3213V23.2885ZM71.7628 27.6599C71.1508 28.7527 70.7574 30.0969 69.1728 30.2499C68.987 29.8565 68.8012 29.474 68.3094 29.3865C68.3313 27.3429 70.4514 25.9004 71.7628 27.638V27.6599ZM68.3094 30.698C67.9488 32.6323 66.1237 33.0694 65.7194 35.0147C64.6484 33.2989 66.6811 31.0477 68.3094 30.698ZM70.0361 41.0472C68.2766 39.2112 64.9981 38.8615 64.8561 35.4409C66.0582 37.8014 69.3586 38.0856 70.0361 41.0035V41.0472ZM57.9602 22.8951C59.5776 18.6002 68.7247 23.6273 63.5665 25.9113C63.7882 24.5552 63.479 23.1658 62.7032 22.0317C57.6433 21.2886 59.1623 27.1025 58.8126 31.0804C57.0094 29.8783 58.3974 25.4742 57.9602 22.8951ZM56.6597 67.3191C56.922 69.9419 58.2771 71.461 58.3974 74.2259C52.6417 74.7942 46.7622 75.2204 40.7589 75.5045C40.4857 74.3461 41.3053 72.0839 40.3327 71.6358C41.0212 70.543 42.4091 72.4008 43.3489 72.4883C46.2559 71.9418 47.4034 69.6359 48.9552 67.7453C50.9005 68.3573 54.2227 67.5923 56.6597 67.3191ZM38.9775 75.5045H32.0817V69.472C33.4805 67.2863 38.453 71.0566 38.5513 67.2863C39.4256 67.5595 38.6606 69.472 40.278 69.013C38.2235 70.696 39.4802 71.7451 38.9775 75.5045ZM35.5242 57.8223C41.3381 55.9863 43.6877 60.7293 45.8843 63.8657C43.6986 64.1608 43.0211 65.8984 42.4309 67.7453C39.207 65.3629 37.7098 61.2975 35.5242 57.8223ZM55.3702 64.3029C53.3921 64.5542 51.5999 64.0297 50.9988 66.4885C48.682 62.2046 42.7806 61.4943 43.6768 53.9755C46.3105 54.3143 47.7094 53.4182 50.1464 53.5493C49.9387 49.5713 49.294 46.0524 49.2831 41.8996C51.9858 49.1678 54.0232 56.6663 55.3702 64.3029ZM49.2503 12.9393L32.8576 8.06518C33.0215 7.84661 33.1855 7.6499 33.3603 7.44226L50.5945 12.5895L50.9879 12.9065C50.4633 12.9065 49.8623 12.9283 49.2503 12.9611V12.9393ZM32.5188 23.3213C32.7343 24.6293 32.6495 25.9692 32.2708 27.2396C31.8922 28.51 31.2296 29.6776 30.3332 30.6542C31.12 28.2609 31.732 25.7037 32.5188 23.3213ZM31.2184 22.8951C32.4314 23.7147 30.6282 25.1354 30.7812 26.3375C28.9125 25.7255 30.6719 23.671 31.2184 22.8951ZM32.8576 17.715C32.5123 18.0092 32.2456 18.3848 32.0817 18.8078C31.4679 18.3682 30.9785 17.7771 30.661 17.0921M33.9395 16.9828L29.5682 15.6823C29.193 15.3309 28.694 15.1424 28.1803 15.1577C28.2819 14.8679 28.4061 14.5866 28.5518 14.3162L35.1854 16.2943C34.7337 16.5056 34.3147 16.7241 33.9286 16.95L33.9395 16.9828ZM36.7044 15.6495L29.0545 13.3873C29.2403 13.0813 29.437 12.7644 29.6556 12.4366L38.3983 15.0484C37.8301 15.2124 37.2399 15.3982 36.6935 15.6167L36.7044 15.6495ZM40.278 14.502L30.3113 11.5295L30.9233 10.6771L42.1577 14.0321L40.278 14.502ZM44.3434 13.595L31.579 9.75909L32.2019 8.95038L46.5291 13.2125C45.7969 13.3218 45.0647 13.442 44.3325 13.5622L44.3434 13.595ZM44.9117 7.99961L35.3821 5.15822C35.5569 4.95058 35.7209 4.75387 35.8957 4.56808L43.644 6.95048L44.9117 7.99961ZM41.5676 5.22379L36.6389 3.70474L37.0104 3.28946L40.5731 4.3823L41.5676 5.22379ZM38.5732 2.63375L37.8082 2.40425L38.0158 2.16383L38.5732 2.63375ZM34.6608 5.98878L47.0099 9.67166L48.4088 10.841L34.1144 6.57891L34.6608 5.98878ZM29.0873 22.8951C28.5409 21.2886 26.6175 19.245 27.3716 17.715C29.1747 18.0647 28.836 20.5564 31.2511 20.305C30.5408 21.2121 30.4424 22.6874 29.0545 22.8951H29.0873ZM32.9778 32.3809C32.3658 28.9275 36.9011 23.3868 34.2674 19.4417C36.4531 13.4092 50.3322 14.6004 49.0973 15.1249C49.283 15.9446 50.1901 16.2178 50.8677 20.0427C50.8677 20.0427 54.9658 33.747 51.0862 39.7139C47.6656 41.8996 43.5238 39.5281 40.737 38.4244C40.6714 39.7795 41.8299 39.8997 42.9227 40.1401C40.8682 41.3204 39.36 38.2386 37.3164 37.9544C38.4093 41.8996 43.3708 42.7957 47.6656 42.2712C46.8641 43.9548 45.6818 45.429 44.2123 46.577C41.6331 45.2546 39.218 43.8121 36.8246 42.3039C37.1525 39.9543 36.1471 38.9598 36.3875 36.6977C32.0817 38.0856 29.2075 35.2005 27.765 32.3263L32.9778 32.3809ZM37.2946 46.5879C35.8629 48.1288 34.5297 45.9322 35.1089 44.0088C36.9011 43.8121 36.2891 45.9977 37.2618 46.6097L37.2946 46.5879ZM34.2018 39.2768C34.486 41.1455 33.4587 41.7029 32.9123 42.7301C30.7266 42.0963 29.2294 39.9871 30.7266 37.9872C31.8059 38.6058 32.9802 39.0415 34.2018 39.2768ZM21.7325 16.4145C19.7544 16.2396 18.3556 15.4856 18.2791 13.3983C19.361 10.1307 23.787 13.9556 21.7325 16.4145ZM21.2953 17.2778C19.7763 18.8953 16.924 17.5511 16.9786 15.0922C18.6835 15.5839 18.9785 17.4418 21.2953 17.2778ZM14.3995 28.0642C14.0605 28.0899 13.7209 28.0232 13.4169 27.8711C13.1128 27.7191 12.8557 27.4875 12.6728 27.2009C10.2686 28.2937 10.6292 30.6433 10.9461 33.6705C8.1266 28.7855 10.662 21.6492 13.5362 18.5783C15.0334 18.928 15.1973 17.9335 16.5524 18.1412C16.6945 20.3269 14.9131 20.5236 15.2629 22.8951C16.6508 23.2775 15.8639 21.4853 16.5524 21.1684C17.383 21.3432 16.5524 23.1355 18.2791 22.4579C16.8256 24.1409 14.6618 25.1682 14.3995 28.0642ZM23.4482 39.2768C21.2626 35.5939 15.7983 29.9657 17.842 26.7746C23.4505 33.4919 28.6369 40.5507 33.3713 47.9102C31.5134 47.9102 31.7866 50.0959 29.9179 50.0959C27.8524 47.4294 25.9399 43.5389 23.4482 39.2768ZM29.9179 57.8551C22.8581 55.0574 9.73307 65.5596 1.88646 58.2922C2.06132 54.7296 7.99545 50.6423 11.8095 50.0959C13.3285 49.8773 16.5415 49.2981 16.1153 52.2816C13.3285 52.2816 10.5527 52.1832 8.79323 53.1449C15.1957 54.3803 21.6853 55.1111 28.2021 55.3306C31.1528 51.5057 33.7538 47.6807 39.8409 47.9977C40.5949 48.096 40.8244 48.7408 40.7042 49.7243C39.4912 50.8828 38.9338 48.9594 37.2618 49.2872C37.2618 51.757 40.1032 51.3199 41.5676 52.3035C41.3381 53.9755 42.3435 54.4126 42.0047 56.194C37.3711 54.511 33.3385 56.8169 29.9179 57.8223V57.8551ZM33.3713 58.7184C35.9067 60.2156 36.8902 63.2537 38.1142 66.0514C37.7695 65.901 37.3975 65.8233 37.0214 65.8233C36.6453 65.8233 36.2732 65.901 35.9285 66.0514V64.3029C34.6608 64.1827 34.5952 65.2755 33.3385 65.1662C32.4533 63.1335 33.5789 61.833 33.3713 58.6857V58.7184ZM29.8305 74.215C29.1966 73.1986 28.8032 72.379 28.8032 72.379L30.4424 71.1331C30.2567 72.3462 30.049 73.5592 29.9834 74.6849C29.9579 74.5211 29.9062 74.3624 29.8305 74.215ZM14.8257 97.7985C13.7329 100.487 16.2355 102.388 15.7656 104.301C15.5546 104.794 15.1696 105.192 14.684 105.42C14.1983 105.648 13.6459 105.689 13.1318 105.536C11.0336 104.345 14.5197 99.8421 11.886 98.8804C10.1265 99.1427 11.886 102.006 10.6511 102.902C8.03917 103.907 7.61296 100.334 8.94623 99.0334C7.85338 98.1701 7.85339 96.3341 7.55832 94.662C11.6455 94.7276 15.0661 94.9352 19.3173 94.662C18.1698 97.0663 15.9076 95.1757 14.8257 97.7985ZM6.31248 94.52C5.56934 87.2744 16.1481 85.7772 20.5194 89.5585C21.0967 90.7845 21.735 91.9808 22.4319 93.143C22.48 93.6536 22.4579 94.1684 22.3663 94.673C21.7981 94.8369 22.3008 93.9189 21.6013 94.214C16.8147 94.3998 9.84236 93.8643 6.31248 94.5418V94.52ZM22.1041 95.9407C22.2243 95.6019 23.0658 95.9407 22.88 95.3177C22.6845 94.8149 22.6615 94.2614 22.8144 93.744C25.5793 98.3012 28.989 102.694 30.355 107C27.8087 105.514 25.317 103.984 21.7325 103.547C21.4986 103.781 21.3031 104.05 21.1533 104.345C21.4702 101.536 21.809 98.7602 22.1041 95.9407ZM25.1859 117.349C27.153 115.557 30.6501 117.349 31.6555 119.076C28.7376 119.273 26.082 119.218 25.1859 117.349ZM32.5188 117.349C27.7978 114.956 23.5685 111.623 21.7325 106.574C21.4156 105.394 22.5849 105.7 22.5849 104.836C31.0544 106.159 33.5133 113.481 38.5513 118.213C37.382 120.606 34.2018 118.213 32.5188 117.349ZM38.1142 121.229C38.6169 120.136 39.83 119.786 39.8409 118.213C40.9002 118.367 41.8713 118.89 42.583 119.689C43.2947 120.489 43.7014 121.514 43.7314 122.584C41.7752 123.393 39.4365 122.278 38.1142 121.229ZM34.2018 110.88C37.7645 109.481 38.6825 114.442 42.8353 113.896C43.4473 115.59 44.551 116.77 44.551 119.076C42.3356 118.54 40.2629 117.53 38.4761 116.115C36.6893 114.7 35.2309 112.914 34.2018 110.88ZM37.6552 110.016C39.1196 109.142 41.6659 110.88 42.0266 112.607C40.0048 112.29 38.3109 111.689 37.688 110.016H37.6552ZM51.0207 111.317C49.0309 111.675 47.0085 111.818 44.9882 111.743C44.1795 107.448 43.9828 102.618 42.8025 98.8039C42.4309 97.5909 41.4474 96.5527 41.502 95.3505C41.7096 91.2524 45.8734 89.6787 47.1192 85.8647C50.2338 88.3345 51.3267 91.5693 50.9879 96.651C47.917 98.4105 45.3379 98.8367 45.8187 102.257C46.2777 105.066 52.3867 107.197 51.0535 111.317H51.0207ZM53.2064 102.257C46.7914 100.225 55.5341 94.979 53.2064 102.257V102.257ZM60.5503 113.47C55.9057 114.257 51.2829 111.612 51.4906 106.137C50.2338 104.366 47.7203 103.864 46.7477 101.766C47.0646 100.367 47.458 99.0334 49.3377 99.1864C49.9497 100.968 51.5234 105.536 53.6435 103.066C54.8019 103.787 52.0698 105.7 53.6435 106.946C54.7363 107.066 55.5013 106.782 55.3702 105.656C57.2608 108.137 58.7361 110.967 60.5503 113.47ZM65.2823 88.8809C62.3534 92.4108 58.7252 95.2631 56.2445 99.241C54.5068 97.6564 52.2884 96.5745 51.8731 93.6348C53.7637 92.3998 54.3101 95.6347 56.2445 95.8204C57.3373 94.367 55.5341 92.99 54.944 91.9409C56.168 90.5967 57.6105 92.684 59.2498 92.3671C57.3482 87.9411 52.2009 86.7717 48.4634 84.1707C48.4634 82.6408 50.0699 82.597 49.7639 80.7283C45.7204 83.5806 43.7642 88.5203 40.278 91.9409C38.748 92.0283 39.4147 89.9082 37.688 90.2142C40.567 96.47 42.3205 103.185 42.8681 110.049C40.4529 109.153 38.4967 107.776 37.688 105.306C35.9394 105.569 34.9777 106.629 32.5188 106.17C30.1583 99.8967 25.8197 95.6128 22.1587 90.6404C25.0657 85.7882 29.1747 82.1271 32.945 78.1383C41.605 78.4374 50.2729 77.8478 58.8126 76.3788C59.0968 78.5645 56.6269 77.9197 56.2445 79.395C57.2608 82.3894 59.2388 84.433 60.5503 87.1542C62.2769 87.6023 64.8014 87.2635 65.2823 88.8809ZM63.5665 85.8647C60.1787 85.5149 57.4794 80.8594 58.8126 78.5317C61.4245 79.9414 62.124 83.2856 63.5665 85.8647ZM57.9602 65.1662C58.5613 65.8547 58.3209 67.3519 59.2498 67.7453C53.0315 63.6581 60.3426 55.5492 63.1294 51.7898C64.7796 54.7405 62.1458 57.1229 60.5503 58.2594C60.9546 61.833 60.0148 64.0515 57.9602 65.1662ZM60.1459 67.3519C61.0323 67.1731 61.9535 67.3247 62.7359 67.7781C62.6157 69.1332 59.9055 68.7398 60.1131 67.3191L60.1459 67.3519ZM95.5103 105.743C83.6311 96.5745 73.5442 85.6898 62.7032 75.5045C62.8343 73.4609 64.1457 76.2804 65.2823 75.9416C67.2712 72.5757 72.801 75.4171 73.9157 71.1987C76.003 71.9965 76.921 73.9417 79.9591 73.7887C86.2175 83.3402 92.4103 92.9718 98.5375 102.684C98.1768 104.377 96.7998 105.011 95.4775 105.711L95.5103 105.743Z" fill="#303849"/>
<path id="Vector_59" d="M49.3387 26.7738C48.2459 26.3367 46.4427 26.0197 45.8853 27.2C46.8689 28.0743 50.1583 27.2984 50.1583 27.2984L50.2786 26.3366C45.4263 23.2876 44.869 21.7139 44.9127 21.0801C43.645 24.2712 48.5082 24.5444 49.3387 26.7738Z" fill="#303849"/>
</g>
</svg>
